<svg width="98" height="22" viewBox="0 0 98 22" fill="none" xmlns="http://www.w3.org/2000/svg">
<g clip-path="url(#clip0_2_33480)">
<path d="M46.4812 15.7242C45.0749 16.9175 43.0413 17.5887 40.3802 17.7378V19.4482H36.3002V17.7362C33.6384 17.544 31.6048 16.8622 30.1992 15.6908C28.7936 14.5195 28.0908 12.9187 28.0908 10.8886C28.0908 8.85808 28.7899 7.25362 30.1881 6.07517C31.5862 4.89673 33.6231 4.21107 36.2986 4.0182V2.41797H40.3787V4.0182C43.0404 4.19482 45.0741 4.87289 46.4796 6.05239C47.8852 7.23189 48.588 8.84378 48.588 10.888C48.5891 12.9196 47.8868 14.5316 46.4812 15.7242ZM33.3891 13.2232C34.0355 13.7718 35.0054 14.1275 36.2986 14.2904V7.46239C34.9453 7.61076 33.9604 7.95924 33.344 8.50784C32.7276 9.05643 32.4196 9.85001 32.4199 10.8886C32.4199 11.8971 32.743 12.6753 33.3891 13.2232ZM43.3237 13.2455C43.9472 12.6824 44.2591 11.8893 44.2595 10.8663C44.2598 9.8433 43.9403 9.05785 43.3009 8.50996C42.6619 7.96136 41.6883 7.61217 40.3802 7.46239V14.3126C41.7187 14.1643 42.6999 13.8085 43.3237 13.2455Z" fill="#263650"/>
<path d="M62.4548 6.64654H55.3052V18.7187H50.9072V3.15625H62.4771L62.4548 6.64654Z" fill="#263650"/>
<path d="M66.3819 17.9766C65.0515 17.28 64.0066 16.3165 63.2471 15.0861C62.4876 13.8558 62.108 12.47 62.1084 10.9287C62.1084 9.38751 62.488 8.0017 63.2471 6.77133C64.0062 5.54096 65.0512 4.57746 66.3819 3.88085C67.7129 3.1846 69.2128 2.83629 70.8816 2.83594C72.5503 2.83558 74.05 3.18389 75.3807 3.88085C76.7114 4.57782 77.7563 5.54131 78.5155 6.77133C79.2746 8.00135 79.6544 9.38715 79.6547 10.9287C79.6547 12.4707 79.275 13.8565 78.5155 15.0861C77.756 16.3158 76.7111 17.2793 75.3807 17.9766C74.0504 18.6736 72.5507 19.0219 70.8816 19.0215C69.2124 19.0212 67.7125 18.6729 66.3819 17.9766ZM73.0466 14.8196C73.6931 14.4493 74.224 13.9067 74.5801 13.2522C74.9556 12.5779 75.1435 11.8034 75.1439 10.9287C75.1442 10.0541 74.9563 9.27959 74.5801 8.60523C74.2238 7.95099 73.6929 7.40842 73.0466 7.03786C72.3833 6.6732 71.6385 6.482 70.8816 6.482C70.1246 6.482 69.3798 6.6732 68.7165 7.03786C68.07 7.40834 67.539 7.95092 67.1825 8.60523C66.8066 9.28029 66.6187 10.0548 66.6187 10.9287C66.6187 11.8027 66.8066 12.5772 67.1825 13.2522C67.5386 13.9068 68.0697 14.4495 68.7165 14.8196C69.3798 15.1843 70.1246 15.3755 70.8816 15.3755C71.6385 15.3755 72.3833 15.1843 73.0466 14.8196Z" fill="#263650"/>
<path d="M85.2748 17.9877C83.959 17.2982 82.9254 16.3384 82.174 15.1084C81.4226 13.8784 81.0466 12.4852 81.0459 10.9287C81.0459 9.37231 81.4219 7.97909 82.174 6.74907C82.9261 5.51905 83.9597 4.55927 85.2748 3.86973C86.5903 3.18053 88.0751 2.83594 89.729 2.83594C91.1724 2.83594 92.473 3.08798 93.631 3.59207C94.7566 4.07197 95.7477 4.82 96.5178 5.77092L93.676 8.30585C92.6534 7.09067 91.4129 6.4829 89.9547 6.48254C89.0974 6.48254 88.3343 6.66782 87.6656 7.03838C87.0062 7.39937 86.4657 7.94381 86.1094 8.60576C85.7406 9.28082 85.5564 10.0553 85.5567 10.9293C85.5571 11.8032 85.7413 12.5777 86.1094 13.2528C86.4654 13.9149 87.006 14.4595 87.6656 14.8201C88.3343 15.1907 89.0974 15.376 89.9547 15.376C91.4129 15.376 92.6534 14.7682 93.676 13.5527L96.5178 16.0871C95.7482 17.0389 94.757 17.7875 93.631 18.2675C92.4727 18.7716 91.172 19.0237 89.729 19.0237C88.0747 19.0222 86.59 18.6769 85.2748 17.9877Z" fill="#263650"/>
<path d="M11.5618 21.7447L22.0147 16.1497V11.4062L11.5618 17.0007L1.1084 11.4062V16.1497L11.5618 21.7447Z" fill="#263650"/>
<path d="M11.5618 16.1704L22.0147 10.576V5.83203L11.5618 11.427L1.1084 5.83203V10.576L11.5618 16.1704Z" fill="#263650"/>
<path d="M11.5618 10.5923L22.0147 4.99789V0.253906L11.5618 5.84887L1.1084 0.253906V4.99789L11.5618 10.5923Z" fill="#263650"/>
</g>
<defs>
<clipPath id="clip0_2_33480">
<rect width="96.713" height="21.4918" fill="white" transform="translate(0.643555 0.253906)"/>
</clipPath>
</defs>
</svg>
