<svg width="50" height="56" viewBox="0 0 50 56" fill="none" xmlns="http://www.w3.org/2000/svg">
<g clip-path="url(#clip0_2_33510)" filter="url(#filter0_i_2_33510)">
<path d="M38.6888 41.4375C38.5169 41.4375 38.4023 41.5807 38.4023 41.7526C38.4023 41.9244 38.5456 42.0676 38.6888 42.0676C38.8606 42.0676 38.9752 41.9244 38.9752 41.7526C38.9752 41.5807 38.8606 41.4375 38.6888 41.4375Z" fill="#A339C0" fill-opacity="0.8"/>
<path d="M39.6699 44.2526C39.6699 44.4244 39.8131 44.5676 39.9564 44.5676C40.1282 44.5676 40.2428 44.4244 40.2428 44.2526C40.2428 44.0807 40.0996 43.9375 39.9564 43.9375C39.7845 43.9375 39.6699 44.0807 39.6699 44.2526Z" fill="#A339C0" fill-opacity="0.8"/>
<path d="M38.6888 43.9375C38.5169 43.9375 38.4023 44.0807 38.4023 44.2526C38.4023 44.4244 38.5456 44.5676 38.6888 44.5676C38.8606 44.5676 38.9752 44.4244 38.9752 44.2526C38.9752 44.0807 38.8606 43.9375 38.6888 43.9375Z" fill="#A339C0" fill-opacity="0.8"/>
<path d="M40.9043 44.2526C40.9043 44.4244 41.0475 44.5676 41.1907 44.5676C41.3626 44.5676 41.4772 44.4244 41.4772 44.2526C41.4772 44.0807 41.3339 43.9375 41.1907 43.9375C41.0475 43.9375 40.9043 44.0807 40.9043 44.2526Z" fill="#A339C0" fill-opacity="0.8"/>
<path d="M38.2906 38.6602L38.3479 39.3766L37.7461 39.2906V40.0931L38.3479 40.0357L38.2906 40.7809H39.093L39.0357 40.0357L39.6375 40.0931V39.2906L39.0357 39.3766L39.093 38.6602H38.2906Z" fill="#A339C0" fill-opacity="0.8"/>
<path d="M39.207 41.2148V43.7654H41.6716C41.471 42.4471 40.468 41.4155 39.207 41.2148Z" fill="#A339C0" fill-opacity="0.8"/>
<path d="M38.6888 42.6758C38.5169 42.6758 38.4023 42.819 38.4023 42.9909C38.4023 43.1627 38.5456 43.3059 38.6888 43.3059C38.8606 43.3059 38.9752 43.1627 38.9752 42.9909C38.9752 42.819 38.8606 42.6758 38.6888 42.6758Z" fill="#A339C0" fill-opacity="0.8"/>
<path d="M39.729 45.9375C39.643 45.9375 39.4422 46.5683 39.643 47.0271C39.7576 47.2565 39.987 47.3711 40.1877 47.3138C40.3885 47.2565 40.4458 47.0557 40.4458 46.9124C40.5031 46.4249 40.0444 45.9375 39.729 45.9375Z" fill="#A339C0" fill-opacity="0.8"/>
<path d="M37.6596 45.9375C37.3442 45.9375 36.9141 46.3963 36.9141 46.9124C36.9141 47.0557 36.9714 47.2565 37.1721 47.3138C37.3728 47.3711 37.6309 47.2851 37.7169 47.0271C37.9176 46.597 37.7456 45.9375 37.6596 45.9375Z" fill="#A339C0" fill-opacity="0.8"/>
<path d="M38.6882 45.5898C38.4303 45.5898 37.7998 46.8795 38.287 47.5386C38.373 47.6532 38.5449 47.7392 38.6882 47.7392C38.8602 47.7392 39.0035 47.6819 39.0894 47.5386C39.5766 46.9081 38.9461 45.5898 38.6882 45.5898Z" fill="#A339C0" fill-opacity="0.8"/>
<path d="M35.654 44.2458C35.654 43.9878 35.7113 43.7586 35.7113 43.7586H38.1759V43.558V41.7525V41.2367C36.9722 41.4373 36.0265 42.383 35.7399 43.558C35.6826 43.644 35.4534 43.7013 35.2814 43.7013C34.3644 43.5866 32.5302 43.2427 32.5302 42.8702C32.5302 42.3257 32.9028 42.0964 33.2754 42.0964C33.7912 42.0964 34.3644 42.383 34.8229 41.6952C33.1321 41.7812 34.4217 39.3452 33.0461 38.8867C33.1034 39.5172 33.0461 40.6062 32.8168 41.1794C32.8168 41.1794 32.3296 40.6635 31.7565 40.4629C31.7851 40.9214 31.7278 41.8385 31.4986 42.2684C31.4986 42.2684 30.9254 41.7239 30.2949 41.5233C30.8681 42.3257 30.8394 43.5007 30.6961 44.2171C30.6388 44.4177 30.8108 44.6756 31.2406 44.647C31.8998 44.6183 34.1924 44.7043 35.1954 45.1342C35.5107 45.2488 35.7686 45.3921 35.9119 45.6214C36.0265 45.9079 36.2845 46.3665 36.5997 46.6244C36.743 46.1085 37.3448 45.564 37.746 45.5927C37.8606 45.5927 38.0039 45.7933 38.0326 45.9939C38.0613 45.822 38.3765 45.3061 38.6917 45.3061C38.9783 45.3061 39.2649 45.736 39.3795 46.0799C39.4082 45.8506 39.5515 45.6214 39.6661 45.6214C40.0673 45.6214 40.5832 45.9653 40.7551 46.5671C40.8984 46.3665 41.6148 45.4781 41.7008 44.8762H35.7113C35.7113 44.7616 35.654 44.5037 35.654 44.2458Z" fill="#A339C0" fill-opacity="0.8"/>
<path d="M37.168 44.2526C37.168 44.4244 37.3112 44.5676 37.4544 44.5676C37.5976 44.5676 37.7408 44.4244 37.7408 44.2526C37.7408 44.0807 37.5976 43.9375 37.4544 43.9375C37.2825 43.9375 37.168 44.0807 37.168 44.2526Z" fill="#A339C0" fill-opacity="0.8"/>
<path d="M35.9336 44.2526C35.9336 44.4244 36.0768 44.5676 36.22 44.5676C36.3919 44.5676 36.5065 44.4244 36.5065 44.2526C36.5065 44.0807 36.3632 43.9375 36.22 43.9375C36.0768 43.9375 35.9336 44.0807 35.9336 44.2526Z" fill="#A339C0" fill-opacity="0.8"/>
<path d="M12.354 45.4844C12.268 45.5704 12.0099 46.2299 12.1246 46.6313C12.1819 46.8033 12.268 46.8607 12.4113 46.8607C12.5834 46.8607 12.6694 46.7747 12.6981 46.6026C12.7554 46.2012 12.4687 45.5704 12.354 45.4844Z" fill="#A339C0" fill-opacity="0.8"/>
<path d="M14.4707 47.2591C14.3275 47.4023 14.1842 47.5169 14.127 47.5742C14.1842 47.6314 14.3275 47.7174 14.528 47.7174C14.6425 47.7174 14.7285 47.6887 14.843 47.6314C15.0435 47.3164 14.843 46.9726 14.7571 46.8867C14.6998 46.9726 14.6139 47.1159 14.4707 47.2591Z" fill="#A339C0" fill-opacity="0.8"/>
<path d="M13.6944 46.4851C13.895 46.2559 13.981 46.1126 13.9237 45.9693C13.8377 45.7974 13.3792 45.2528 12.7774 44.6797C12.7487 44.7943 12.7201 44.909 12.6914 45.0522C13.0926 45.5967 13.2646 46.1986 13.1213 46.6858C13.1786 46.7144 13.2072 46.7431 13.2072 46.7431C13.3505 46.7717 13.5511 46.5998 13.6944 46.4851Z" fill="#A339C0" fill-opacity="0.8"/>
<path d="M14.48 46.512C14.5087 46.4259 14.48 46.3399 14.4514 46.2826C14.4227 46.2539 14.4227 46.2539 14.4227 46.2539C14.394 46.2539 14.308 46.3399 14.222 46.4546C14.1646 46.5406 14.0786 46.6267 13.9926 46.7413C13.9066 46.856 13.7919 46.9421 13.7345 46.9994C13.6485 47.0854 13.5625 47.1714 13.5625 47.2001C13.5625 47.2001 13.5625 47.2288 13.5912 47.2288C13.6198 47.2575 13.6772 47.2861 13.7345 47.2861C13.8206 47.2861 13.9926 47.2575 14.2507 46.9707C14.394 46.77 14.4514 46.598 14.48 46.512Z" fill="#A339C0" fill-opacity="0.8"/>
<path d="M10.72 43.5052C10.72 43.5052 10.6341 43.5911 10.6055 43.677C10.72 43.677 10.8919 43.7057 11.0065 43.7343C11.0065 43.6198 10.9778 43.4479 11.0065 43.3047C10.8633 43.3333 10.7487 43.4479 10.72 43.5052Z" fill="#A339C0" fill-opacity="0.8"/>
<path d="M12.2399 43.6713C12.2399 43.6713 13.4149 44.7317 13.8161 45.1042C13.9021 45.1902 14.0454 45.2189 14.16 45.1329C14.246 45.1042 14.332 45.0469 14.4179 45.0183C15.5929 44.5884 17.5417 44.5597 18.2581 44.5884C18.688 44.617 18.8313 44.3591 18.8026 44.1585C18.6593 43.4994 18.6307 42.2957 19.2038 41.4647C18.602 41.6653 18.0002 42.2098 18.0002 42.2098C17.7996 41.7799 17.7136 40.8628 17.7423 40.4043C17.1978 40.6049 16.6819 41.1208 16.6819 41.1208C16.4527 40.5476 16.3953 39.4586 16.4527 38.8281C15.0771 39.2867 16.3667 41.7226 14.6759 41.6366C15.1344 42.3244 15.7075 42.0378 16.2234 42.0378C16.5959 42.0378 17.0258 42.2671 16.9685 42.8116C16.9112 43.2128 14.6759 43.7 13.7588 43.7C13.1283 43.7 12.6985 43.4994 12.3832 43.0695C12.2399 42.8689 12.068 42.7543 11.896 42.7829C11.6668 42.8116 11.4375 43.0409 11.4375 43.5567C11.4375 43.9293 11.5808 44.7317 12.0107 44.7317C12.3546 44.703 12.3546 44.0725 12.2399 43.6713Z" fill="#A339C0" fill-opacity="0.8"/>
<path d="M9.97575 43.295C10.0331 43.3236 10.0904 43.295 10.119 43.2663C9.94709 43.4956 9.94709 43.6389 10.0331 43.7248C10.1477 43.8395 10.2337 43.6389 10.5202 43.3236C10.8068 43.0084 11.0074 42.9224 10.8928 42.8078C10.8068 42.7218 10.6635 42.7218 10.4343 42.9224C10.4629 42.8651 10.4629 42.8078 10.4629 42.7505C10.377 42.4639 9.91843 42.12 9.68917 42.12C9.66051 42.12 9.63185 42.12 9.57453 42.1486C9.68917 41.9767 9.66051 41.8334 9.57453 41.7761C9.48856 41.6901 9.4599 41.7474 9.37393 41.8621C9.37393 41.7761 9.37393 41.6901 9.28795 41.5755C8.9154 41.031 6.99531 39.1969 6.56544 39.0249C6.30752 38.9103 6.22154 39.0536 6.22154 39.0536C6.22154 39.0536 6.07825 39.1395 6.19289 39.4261C6.39349 39.856 8.22761 41.7761 8.77211 42.12C8.88674 42.206 8.97272 42.206 9.05869 42.206C8.94406 42.2919 8.9154 42.3492 8.97272 42.4352C9.03003 42.4925 9.17332 42.5212 9.34527 42.4066C9.34527 42.4352 9.31661 42.4639 9.31661 42.5212C9.34527 42.7505 9.71783 43.209 9.97575 43.295Z" fill="#A339C0" fill-opacity="0.8"/>
<path d="M11.359 44.6567C11.359 44.456 10.9863 44.1406 10.5562 44.1406C9.9254 44.1406 9.63867 44.542 9.63867 44.7428C9.63867 45.1442 10.0114 45.1729 10.1261 45.2015C10.5849 45.2302 11.3017 44.7714 11.359 44.6567Z" fill="#A339C0" fill-opacity="0.8"/>
<path d="M10.8054 45.6243C10.6334 45.8537 10.576 46.0544 10.6047 46.2551C10.662 46.5132 10.8914 46.5992 11.1208 46.5992C11.3502 46.5992 11.5509 46.4845 11.6656 46.3125C11.9237 45.9397 11.9237 45.0795 11.8376 44.9648C11.6083 44.9935 11.0921 45.2516 10.8054 45.6243Z" fill="#A339C0" fill-opacity="0.8"/>
<path d="M5.19023 36.7402C5.01828 36.5683 4.64572 36.8262 4.41646 36.7116C4.50243 36.1671 4.90365 36.7402 5.2762 36.339C5.41949 36.1671 5.33352 35.9378 5.24754 35.8518C5.07559 36.0238 4.84633 35.9665 4.81767 35.8805C5.24754 34.8775 4.41646 33.7598 3.61403 33.9031C3.75732 34.1037 3.81464 34.8488 3.75732 35.0494C4.07256 35.2787 3.8433 35.7945 3.4994 35.6226C3.27014 35.5366 2.86893 34.9635 3.32745 34.5622C3.32745 34.4189 3.06953 34.3903 2.81161 34.7342C3.01222 34.1037 1.80858 34.3043 1.57931 34.4476C1.43602 34.7055 1.29273 35.9378 1.89455 35.7086C1.57931 35.9951 1.60797 36.2531 1.75126 36.2531C2.12382 35.7659 2.66832 36.1671 2.78295 36.3964C2.92624 36.7402 2.43905 36.9695 2.20979 36.6829C2.00918 36.7689 1.32139 36.7402 1.09213 36.5683C0.977494 37.3994 2.09516 38.2018 3.06953 37.7433C3.15551 37.7719 3.21282 38.0012 3.06953 38.1732C3.15551 38.2591 3.38477 38.3451 3.52806 38.1732C3.90061 37.7719 3.32745 37.3994 3.87196 37.2848C3.98659 37.514 3.75732 37.8866 3.92927 38.0872C4.21585 38.3738 4.58841 37.8293 4.9323 37.8006C4.96096 37.3994 5.47681 37.0268 5.19023 36.7402ZM2.20979 35.4506C2.20979 35.4506 2.00918 35.3073 2.23845 35.0781C2.46771 34.8488 2.611 35.0208 2.611 35.0208C2.611 35.0208 2.81161 35.4793 2.89758 35.7086C2.66832 35.6512 2.20979 35.4506 2.20979 35.4506ZM4.04391 36.8835C3.92927 36.9122 3.64269 37.1415 3.52806 36.9982L2.89758 36.3677L3.21282 36.0238L3.52806 35.6799L4.15854 36.3104C4.30183 36.4823 4.07256 36.7689 4.04391 36.8835Z" fill="#A339C0" fill-opacity="0.8"/>
<path d="M5.36696 37.918C5.30962 37.918 5.2236 37.918 5.16625 38.004C5.1089 38.0613 5.08023 38.176 5.1089 38.2907C5.13758 38.4054 5.19492 38.5488 5.30961 38.6348C5.42431 38.7495 5.59634 38.8355 5.73971 38.8355C5.79706 38.8355 5.88307 38.8355 5.94042 38.7495C6.08378 38.6061 5.99777 38.3194 5.79706 38.1187C5.65369 38.004 5.51033 37.918 5.36696 37.918Z" fill="#A339C0" fill-opacity="0.8"/>
<path d="M3.55856 36.0234L3.3867 36.1953L3.21484 36.3672C3.21484 36.3672 3.55856 36.8254 3.84499 36.6536C4.01685 36.3672 3.55856 36.0234 3.55856 36.0234Z" fill="#A339C0" fill-opacity="0.8"/>
<path d="M36.8015 34.3026C36.8015 34.3886 36.3143 34.6465 35.9991 33.9874C35.6552 33.9301 35.3113 33.8155 35.082 33.7295C35.4832 34.5319 35.8271 35.191 36.4003 35.5636C37.2314 36.1081 38.5497 35.9935 38.9795 35.3917C38.2631 34.9904 37.3747 33.9874 36.9161 32.9844C36.8302 33.2136 36.6582 33.6149 36.5149 33.8728C36.5722 34.0161 36.6869 34.188 36.8015 34.3026Z" fill="#A339C0" fill-opacity="0.8"/>
<path d="M44.7711 21.8406C45.7168 21.4394 47.0064 20.551 47.6083 19.9205C47.6942 20.0351 47.8948 20.551 47.2071 21.1241C46.7199 21.554 45.6882 22.0125 44.9144 22.3278C44.5705 22.8436 43.9114 23.4168 42.9657 24.0472C44.7711 23.7607 46.9778 23.0442 48.0381 21.9839C50.0729 20.0065 48.9839 17.5705 48.7259 17.0547C47.4077 18.6882 44.9144 20.4077 42.5645 21.3534C43.3669 21.468 44.198 21.64 44.7711 21.8406Z" fill="#A339C0" fill-opacity="0.8"/>
<path d="M43.2776 18.1725C44.4526 17.1981 45.7422 15.2493 45.9428 14.5616C46.2008 14.7622 46.344 15.3067 45.9715 15.9658C45.341 17.0835 44.2234 18.0292 43.249 18.8029C43.2203 19.5194 42.9051 20.3505 42.5898 20.9523C44.0227 20.0066 45.6563 18.545 46.4014 17.5993C47.3757 16.3384 47.777 15.0774 47.5763 13.8451C47.6337 12.4409 46.6306 11.008 46.2008 10.6641C45.9428 12.2116 44.3666 14.8481 42.9911 16.3384C43.163 16.8255 43.249 17.542 43.2776 18.1725Z" fill="#A339C0" fill-opacity="0.8"/>
<path d="M42.3599 27.2266C42.6465 27.5418 42.9331 27.943 43.1337 28.2869C44.2227 28.5162 45.5409 28.4589 45.5409 28.4589C45.5409 28.4589 45.455 29.032 44.7098 29.0607C44.3946 29.0893 43.3629 28.9174 42.933 28.7741C42.7611 28.8601 41.9587 29.032 41.1562 29.1466C42.3026 29.5479 43.9361 29.9777 44.9964 29.9777C45.1111 29.9777 45.197 29.9777 45.283 29.9777C46.9452 29.8344 47.8049 28.2869 47.8336 27.3985C47.3464 27.4845 46.4866 27.5705 45.5982 27.5705C44.8818 27.5705 43.4489 27.5131 42.3599 27.2266Z" fill="#A339C0" fill-opacity="0.8"/>
<path d="M49.2653 22.8711C47.775 23.6449 45.1385 24.4759 43.0751 24.4473C43.591 24.7625 44.1068 25.1351 44.422 25.4503C45.2818 25.393 46.4854 25.1351 47.1732 24.8485C47.1732 24.9631 47.2019 25.5076 46.3994 25.7656C45.8549 25.9375 44.9952 25.9375 44.3934 25.9662C43.9062 26.2814 43.1324 26.5966 42.502 26.8259C43.0751 26.9119 43.7916 26.9692 44.4507 26.9692C45.5684 26.9692 46.5427 26.8546 47.1732 26.654C47.7177 26.4533 49.5805 25.6223 49.2653 22.8711Z" fill="#A339C0" fill-opacity="0.8"/>
<path d="M41.2384 30.7245C41.8689 31.0111 42.528 31.2117 43.1012 31.269C43.1012 31.269 43.0152 31.8135 42.1268 31.6989C41.6396 31.6415 41.0378 31.269 40.9232 31.183C40.5506 31.2403 39.7195 31.2117 39.4043 31.1544C40.3787 31.8421 41.8689 32.6446 43.1298 32.7592C43.1872 32.7592 43.2445 32.7592 43.3304 32.7592C44.6487 32.7592 45.6804 31.4409 45.9383 30.8105C44.5914 30.7818 42.3561 30.266 40.9805 29.4922C41.0665 29.8074 41.1811 30.2373 41.2384 30.7245Z" fill="#A339C0" fill-opacity="0.8"/>
<path d="M38.976 32.4744C39.3199 32.847 39.893 33.1049 39.893 33.1049C39.893 33.1049 39.7498 33.3915 39.4059 33.3915C39.2912 33.3915 39.1766 33.3628 39.062 33.2768C38.8327 33.1335 38.5175 32.7896 38.5175 32.7896C38.0876 32.7323 37.6864 32.675 37.2852 32.5317C37.9729 33.3915 39.1193 34.4518 40.3516 34.7384C40.5235 34.7957 40.7241 34.7957 40.8961 34.7957C42.0137 34.7957 42.8735 33.9933 43.1314 33.4774C41.8704 33.3055 40.065 32.3598 39.1193 31.4141C39.0906 31.8153 39.062 32.1878 38.976 32.4744Z" fill="#A339C0" fill-opacity="0.8"/>
<path d="M30.8087 46.481C31.4105 46.481 31.8404 46.2231 32.0983 45.6212C31.2672 46.0225 30.3215 45.7932 28.6593 45.2773C28.6593 45.2773 28.0002 45.5639 27.6563 45.5926C28.6593 45.9078 30.1495 46.3664 30.3788 46.9395C30.4648 47.4267 30.2068 47.484 30.2068 47.484C29.605 46.7962 28.9459 46.395 27.4843 45.9651C27.4843 46.2231 27.427 46.4237 27.427 46.4237C27.427 46.4237 27.1118 46.5096 26.4526 46.395C27.0258 46.8822 28.4014 48.0285 28.5733 49.3181C28.688 50.1779 28.0862 50.2065 28.0862 50.2065C28.0002 48.9169 27.4557 48.1145 26.2234 46.7676C26.2234 46.7676 26.0228 47.0828 25.7649 47.2261C25.7649 47.2261 25.3063 47.1401 24.9338 46.9109C25.0771 48.6017 25.163 52.6998 25.0771 53.3589C25.0197 53.8174 24.7332 54.018 24.7332 54.018C24.7332 54.018 24.4752 53.8174 24.3893 53.3589C24.3033 52.6998 24.3893 48.6017 24.5326 46.9109C24.16 47.1688 23.7015 47.2261 23.7015 47.2261C23.4436 47.0541 23.2429 46.7676 23.2429 46.7676C22.0393 48.1145 21.4661 48.9169 21.3802 50.2065C21.3802 50.2065 20.7784 50.1779 20.893 49.3181C21.0649 48.0285 22.4405 46.8822 23.0137 46.395C22.3545 46.5096 22.0393 46.4237 22.0393 46.4237C22.0393 46.4237 21.982 46.2517 21.982 45.9651C20.5204 46.395 19.8613 46.8249 19.2595 47.484C19.2595 47.484 18.9729 47.398 19.0875 46.9395C19.3454 46.3664 20.807 45.9078 21.81 45.5926C21.4661 45.5639 20.807 45.2773 20.807 45.2773C19.1448 45.7932 18.1705 46.0225 17.368 45.6212C17.626 46.2231 18.0558 46.481 18.6577 46.481C17.8839 46.7676 17.0815 47.5413 16.8809 48.3438C17.454 50.4358 19.2595 51.0663 19.2595 51.0663C18.8009 50.0632 19.0016 48.0572 21.7241 46.6816C20.0332 48.3438 19.4028 49.8626 19.8326 51.2955C20.2339 52.6138 21.5808 53.1296 22.5838 53.1583C21.8674 50.9803 22.1826 49.0029 23.6728 47.4554C23.0423 49.1748 22.1539 54.4479 24.7045 55.3363C27.2551 54.4479 26.3667 49.1748 25.7362 47.4554C27.1978 49.0315 27.513 50.9803 26.8252 53.1583C27.8282 53.1296 29.1465 52.6138 29.5764 51.2955C30.0349 49.8626 29.3758 48.3438 27.6849 46.6816C30.4075 48.0572 30.6081 50.0632 30.1495 51.0663C30.1495 51.0663 31.955 50.4358 32.5281 48.3438C32.3849 47.5413 31.5824 46.7676 30.8087 46.481Z" fill="#A339C0" fill-opacity="0.8"/>
<path d="M13.156 35.5636C13.7005 35.191 14.0731 34.5319 14.4743 33.7295C14.245 33.8155 13.9011 33.9301 13.5572 33.9874C13.2134 34.6179 12.7548 34.3886 12.7548 34.3026C12.8695 34.188 12.9841 34.0161 13.0701 33.8728C12.9268 33.6149 12.7548 33.2136 12.6688 32.9844C12.1817 33.9874 11.3219 34.9904 10.6055 35.3917C10.978 35.9648 12.325 36.0794 13.156 35.5636Z" fill="#A339C0" fill-opacity="0.8"/>
<path d="M6.53762 24.0746C5.5919 23.4441 4.93276 22.871 4.58887 22.3551C3.8151 22.0399 2.78341 21.5813 2.29623 21.1515C1.60843 20.5783 1.8377 20.0625 1.89501 19.9478C2.49683 20.5783 3.8151 21.4667 4.73216 21.8679C5.30532 21.6387 6.1364 21.4667 6.91017 21.3807C4.58887 20.4637 2.06696 18.7155 0.748691 17.082C0.490769 17.5979 -0.598237 20.0338 1.43648 22.0112C2.52549 23.0429 4.73216 23.788 6.53762 24.0746Z" fill="#A339C0" fill-opacity="0.8"/>
<path d="M6.9413 20.9159C6.62606 20.314 6.31082 19.483 6.28216 18.7665C5.30779 17.9927 4.21879 17.047 3.55965 15.9294C3.1871 15.2989 3.33039 14.7257 3.58831 14.5251C3.78892 15.2129 5.07853 17.1617 6.25351 18.136C6.25351 17.5056 6.36814 16.7891 6.54009 16.2446C5.1645 14.7544 3.58831 12.1465 3.33039 10.5703C2.90052 10.9142 1.89749 12.3471 1.9548 13.7514C1.78285 14.9836 2.18407 16.2446 3.12978 17.5056C3.87489 18.5372 5.5084 19.9701 6.9413 20.9159Z" fill="#A339C0" fill-opacity="0.8"/>
<path d="M6.38873 28.2869C6.58934 27.943 6.87592 27.5418 7.1625 27.2266C6.07349 27.5418 4.64059 27.5991 3.89548 27.5991C3.00708 27.5991 2.14734 27.5418 1.66016 27.4272C1.71747 28.3156 2.54856 29.8631 4.21072 30.0064C4.2967 30.0064 4.38267 30.0064 4.4973 30.0064C5.52899 30.0064 7.19116 29.5765 8.33748 29.1753C7.53505 29.0607 6.73263 28.8887 6.56068 28.8028C6.13081 28.9174 5.12778 29.0893 4.78388 29.0893C4.03877 29.0607 3.9528 28.4875 3.9528 28.4875C3.9528 28.4875 5.32839 28.5162 6.38873 28.2869Z" fill="#A339C0" fill-opacity="0.8"/>
<path d="M2.37625 26.654C3.00673 26.8546 3.9811 26.9692 5.09876 26.9692C5.7579 26.9692 6.47435 26.9119 7.04751 26.8259C6.41703 26.6253 5.64327 26.2814 5.15608 25.9662C4.5256 25.9662 3.69452 25.9375 3.15002 25.7656C2.34759 25.5076 2.34759 24.9631 2.37625 24.8485C3.06404 25.1351 4.23902 25.393 5.12742 25.4503C5.44266 25.1351 5.9585 24.7625 6.47435 24.4473C4.41097 24.4759 1.77443 23.6449 0.284213 22.8711C-0.0596837 25.6223 1.80309 26.4533 2.37625 26.654Z" fill="#A339C0" fill-opacity="0.8"/>
<path d="M6.18991 32.7852C6.24723 32.7852 6.30455 32.7852 6.39052 32.7852C7.65147 32.6706 9.14169 31.8682 10.1161 31.1804C9.80083 31.2377 8.9984 31.2664 8.59719 31.209C8.4539 31.295 7.88074 31.6676 7.39355 31.7249C6.50515 31.8395 6.41918 31.295 6.41918 31.295C6.99234 31.2377 7.65147 31.0371 8.28195 30.7505C8.33927 30.2633 8.4539 29.8621 8.53987 29.5469C7.16429 30.3206 4.92896 30.8651 3.58203 30.8651C3.86861 31.467 4.9003 32.7852 6.18991 32.7852Z" fill="#A339C0" fill-opacity="0.8"/>
<path d="M8.6305 34.8191C8.80245 34.8191 9.00305 34.7905 9.175 34.7618C10.3786 34.4753 11.5536 33.4149 12.2414 32.5552C11.8402 32.6698 11.439 32.7558 11.0091 32.8131C11.0091 32.8131 10.6939 33.1856 10.4646 33.3003C10.35 33.3576 10.2353 33.4149 10.1207 33.4149C9.77682 33.4149 9.63353 33.1283 9.63353 33.1283C9.63353 33.1283 10.178 32.8704 10.5506 32.4978C10.4933 32.2113 10.436 31.8387 10.436 31.4375C9.49024 32.4119 7.68478 33.3289 6.42383 33.5009C6.65309 34.0167 7.54149 34.8191 8.6305 34.8191Z" fill="#A339C0" fill-opacity="0.8"/>
<path d="M24.3066 3.63978C24.3066 3.89784 24.5074 4.12722 24.7654 4.12722C25.0235 4.12722 25.2242 3.89784 25.2242 3.63978C25.2242 3.38173 25.0235 3.15234 24.7654 3.15234C24.5074 3.15234 24.3066 3.38173 24.3066 3.63978Z" fill="#A339C0" fill-opacity="0.8"/>
<path d="M24.4469 2.61022H25.0774L25.02 1.86511L25.7078 1.92242V1.32061L25.02 1.40658L25.0774 0.632812H24.4469L24.5042 1.40658L23.8164 1.32061V1.92242L24.5042 1.86511L24.4469 2.61022Z" fill="#A339C0" fill-opacity="0.8"/>
<path d="M22.2442 10.1759C22.3016 10.2046 22.3875 10.2046 22.4735 10.2046H27.0301C27.1161 10.2046 27.2021 10.2046 27.2594 10.1759C27.4027 10.1186 27.4887 10.004 27.5173 9.83203H21.9863C22.015 10.004 22.101 10.1186 22.2442 10.1759Z" fill="#A339C0" fill-opacity="0.8"/>
<path d="M27.258 9.4885C27.3153 9.4885 27.344 9.45984 27.344 9.40253V9.05863C27.344 9.00131 27.3153 8.97266 27.258 8.97266H22.2715C22.2142 8.97266 22.1855 9.00131 22.1855 9.05863V9.40253C22.1855 9.45984 22.2142 9.4885 22.2715 9.4885H27.258Z" fill="#A339C0" fill-opacity="0.8"/>
<path d="M27.7783 8.63209C27.8929 8.46014 28.552 7.22784 28.552 5.99555C28.552 4.87789 27.1478 4.24741 26.3167 4.21875C26.2307 5.8236 25.6003 8.34551 24.7692 8.34551C23.9954 8.34551 23.3363 5.85226 23.2217 4.21875C22.3906 4.24741 20.9863 4.87789 20.9863 5.99555C20.9863 7.2565 21.6168 8.4888 21.7601 8.63209H27.7783Z" fill="#A339C0" fill-opacity="0.8"/>
<path d="M24.7687 7.53903C25.1412 7.53903 25.6571 6.30673 25.7717 5.16041C25.7717 4.93115 25.3991 4.55859 24.7687 4.55859C24.1382 4.55859 23.7656 4.93115 23.7656 5.16041C23.8803 6.22076 24.3961 7.53903 24.7687 7.53903Z" fill="#A339C0" fill-opacity="0.8"/>
<path d="M31.9841 26.2475C31.9841 26.1042 31.8695 25.9609 31.6976 25.9609H17.8557C17.7124 25.9609 17.5692 26.0756 17.5692 26.2475V35.7333V35.762V35.8193C17.5692 35.8193 17.5405 36.3065 17.8271 36.9083C18.1423 37.5961 19.2886 38.7424 20.8075 39.5162C22.9282 40.6052 24.1892 41.4649 24.791 41.9521C25.4215 41.4649 26.6538 40.5765 28.7744 39.5162C30.2933 38.7424 31.4396 37.5961 31.7549 36.9083C32.0415 36.3065 31.9841 35.7906 31.9841 35.7906V26.2475ZM27.3129 29.7151L27.3415 29.8011C27.5422 30.4889 27.6568 31.2054 27.7428 31.9218C28.3159 32.3803 28.8318 32.8389 29.2616 33.3261C30.1214 32.3517 30.5512 31.4346 30.5799 30.7182H30.5512C30.15 30.7182 29.8348 30.4029 29.8348 30.0017C29.8348 29.8584 29.8921 29.7438 29.9494 29.6292C29.5769 29.4286 29.0897 29.3712 28.7171 29.3712C28.3732 29.3712 28.0293 29.3999 27.6281 29.4859C27.5995 29.4859 27.5995 29.4859 27.5708 29.5145L27.4562 29.5432L27.4848 29.4572C27.5135 29.3712 27.5708 29.2566 27.5708 29.1993V29.1706H27.5995C28.7458 28.97 29.6342 29.056 30.2073 29.3999C30.322 29.3426 30.4366 29.2853 30.5799 29.2853C30.9811 29.2853 31.2964 29.6005 31.2964 30.0017C31.2964 30.2883 31.1244 30.5176 30.9238 30.6322C30.9525 31.4346 30.4366 32.495 29.4909 33.584C29.5482 33.6413 29.5769 33.6986 29.6342 33.7559C29.6628 33.7846 29.6915 33.8419 29.7202 33.8706L29.7488 33.8992L29.7202 33.9279C29.6628 33.9852 29.6342 34.0425 29.5769 34.0998L29.5482 34.1285L29.5196 34.0998H29.4909C29.4622 34.0712 29.4336 34.0138 29.4049 33.9852C29.3763 33.9279 29.319 33.8992 29.2903 33.8419C29.1757 33.9565 29.061 34.0712 28.9464 34.1858L28.8604 34.2718C28.6885 34.3864 28.5165 34.4151 28.3732 34.3577L28.3159 34.3291L28.3732 34.3004C28.6598 34.0425 28.8891 33.8132 29.0897 33.584C28.7171 33.1828 28.2873 32.7816 27.8287 32.409C27.8574 32.8102 27.886 33.2114 27.886 33.584C27.886 33.9279 27.8574 34.3004 27.8287 34.759V34.7876H27.8001C27.7428 34.8163 27.6568 34.8736 27.5422 34.9309L27.4848 34.9596V34.8736C27.5135 34.4151 27.5422 33.9852 27.5422 33.584C27.5422 33.4407 27.5422 33.2974 27.5422 33.1828V33.0968C27.5422 32.8389 27.4848 32.0078 27.3989 31.4919H27.3702V31.4633C27.3129 31.0048 27.1983 30.5462 27.1123 30.1164V30.0877L27.1409 30.059L27.1696 30.0304C27.2269 29.9731 27.2842 29.9157 27.3129 29.8584V29.7151ZM22.613 28.6261C23.1861 27.2792 23.9599 26.5341 24.791 26.5341C25.6221 26.5341 26.3958 27.2792 26.969 28.6261L26.9976 28.6548L26.969 28.6835C26.9403 28.7121 26.8544 28.7408 26.7397 28.7981L26.7111 28.8267L26.6824 28.7981C26.1666 27.5944 25.4788 26.9067 24.791 26.9067C24.1032 26.9067 23.4154 27.5944 22.8995 28.7981L22.8709 28.8267L22.8422 28.7981C22.7276 28.7408 22.6416 28.7121 22.613 28.6835L22.5843 28.6548L22.613 28.6261ZM22.4124 28.9987C22.613 29.1133 23.1288 29.3712 23.6733 29.1993C24.1605 29.056 24.791 29.056 24.791 29.056C24.791 29.056 25.4215 29.056 25.9086 29.1993C26.4531 29.3712 26.969 29.1133 27.1696 28.9987C27.1983 28.97 27.2556 28.9987 27.2269 29.056C27.1696 29.2853 26.969 29.8871 26.1379 30.0877C25.3355 30.2883 24.9629 31.2054 24.8483 31.5779C24.8483 31.6352 24.7623 31.6352 24.7623 31.5779C24.6477 31.2054 24.2751 30.2883 23.4727 30.0877C22.613 29.8871 22.4124 29.3139 22.3837 29.056C22.3264 28.9987 22.3837 28.97 22.4124 28.9987ZM23.7879 31.2913C23.9312 31.2913 24.0745 31.234 24.1892 31.1767C24.2751 31.32 24.3325 31.4633 24.3611 31.5493C24.1892 31.6352 24.0172 31.7212 23.8166 31.7212C23.2148 31.7212 22.6989 31.234 22.6989 30.6035C22.6989 30.4602 22.7276 30.317 22.7849 30.2023C22.8995 30.2596 23.0142 30.317 23.1575 30.3743C23.1288 30.4603 23.1002 30.5462 23.1002 30.6322C23.1002 30.9761 23.4154 31.2913 23.7879 31.2913ZM23.4727 30.6035C23.4727 30.5462 23.4727 30.5176 23.5014 30.4889C23.6733 30.5749 23.8453 30.6895 23.9599 30.8615C23.9026 30.8901 23.8453 30.9188 23.7879 30.9188C23.616 30.9188 23.4727 30.7755 23.4727 30.6035ZM23.7879 32.0651C24.0459 32.0651 24.3038 31.9791 24.5331 31.8645C24.5904 31.9218 24.6763 32.1511 24.791 32.1511C24.877 32.1511 24.9629 31.9218 25.0489 31.8645C25.2782 32.0078 25.5361 32.0651 25.794 32.0651C26.1952 32.0651 26.5391 31.8932 26.8257 31.6352C26.8257 31.6352 26.8257 31.6639 26.8544 31.6639C26.9976 32.0938 26.9976 32.6956 26.969 32.9248C26.9403 33.1541 26.883 33.412 26.8257 33.6126C26.7397 33.8992 26.6538 34.0998 26.6538 34.0998C26.6538 34.0998 26.6251 34.1571 26.5964 34.2718C26.5105 34.4724 26.3672 34.8736 26.1666 35.3035C25.7367 35.0455 25.2209 34.9022 24.705 34.9022C24.2178 34.9022 23.7593 35.0169 23.3581 35.2461C23.1861 34.8736 23.0428 34.501 22.9569 34.3004C22.8995 34.1858 22.8709 34.0998 22.8709 34.0998C22.8709 34.0998 22.7563 33.8419 22.6703 33.5267C22.613 33.3261 22.5557 33.1254 22.5557 32.9248C22.527 32.7529 22.527 32.1511 22.6703 31.6925C22.6989 31.6352 22.7276 31.5493 22.7563 31.4919C22.9282 31.8645 23.3294 32.0651 23.7879 32.0651ZM25.7654 31.2913C26.1379 31.2913 26.4531 30.9761 26.4531 30.6035C26.4531 30.5176 26.4245 30.4316 26.3958 30.3456C26.5391 30.2883 26.6538 30.231 26.7684 30.1737C26.8257 30.317 26.8544 30.4316 26.8544 30.5749C26.8544 31.1767 26.3672 31.6925 25.7367 31.6925C25.5361 31.6925 25.3355 31.6352 25.1635 31.5206C25.1922 31.406 25.2495 31.2913 25.3355 31.148C25.4788 31.2627 25.6221 31.2913 25.7654 31.2913ZM25.5934 30.8328C25.708 30.6895 25.88 30.5462 26.0519 30.4602C26.0806 30.4889 26.0806 30.5462 26.0806 30.5749C26.0806 30.7468 25.9373 30.8901 25.7654 30.8901C25.6794 30.9188 25.6221 30.8901 25.5934 30.8328ZM18.9734 29.228C19.1167 29.228 19.2313 29.2853 19.346 29.3426C19.7185 29.1133 20.2057 28.97 20.8362 28.97C21.1801 28.97 21.524 28.9987 21.9252 29.056H21.9825V29.0847C22.0112 29.142 22.0398 29.2566 22.0685 29.3426L22.0971 29.4286L21.9825 29.3999C21.9538 29.3999 21.8965 29.3712 21.8679 29.3712C21.4953 29.3139 21.1514 29.2853 20.8362 29.2853C20.435 29.2853 19.9478 29.3426 19.5752 29.5432C19.6325 29.6578 19.6899 29.7725 19.6899 29.9157C19.6899 30.317 19.3746 30.6322 18.9734 30.6322C19.0021 31.32 19.4606 32.237 20.2917 33.2401C20.7215 32.7529 21.2374 32.2944 21.8105 31.8358C21.8965 31.1194 22.0111 30.4316 22.2118 29.7151L22.2404 29.6292L22.2977 29.6865C22.355 29.7438 22.3837 29.8011 22.441 29.8584C22.4697 29.8871 22.4697 29.8871 22.4697 29.8871L22.4983 29.9157V29.9444C22.3837 30.3743 22.2977 30.8328 22.2404 31.2913V31.32H22.2118C22.1544 31.6639 22.1258 32.1224 22.0971 32.5809C22.0685 32.8962 22.0685 33.1828 22.0685 33.4407C22.0685 33.7846 22.0971 34.1285 22.1258 34.5583V34.6157L22.0685 34.587C21.9825 34.5583 21.8965 34.5297 21.8392 34.5297H21.8105V34.501C21.7819 34.1858 21.7532 33.8132 21.7532 33.4407C21.7532 33.0395 21.7819 32.6383 21.8105 32.2657C21.352 32.6383 20.9221 33.0395 20.5496 33.4407C20.8648 33.7846 21.2374 34.1285 21.6673 34.501L21.7246 34.5583L21.6386 34.587C21.4953 34.6157 21.352 34.6157 21.2087 34.5583C20.8362 34.2431 20.5496 33.9565 20.3203 33.6986C20.263 33.7559 20.2344 33.8132 20.177 33.8706L20.1484 33.9279C20.0911 33.9565 20.0051 33.9852 19.9478 34.0138L19.9191 34.0425L19.8905 34.0138C19.8618 33.9852 19.8618 33.9852 19.8331 33.9565C19.8045 33.9565 19.8045 33.9279 19.7758 33.9279L19.7472 33.8992L19.7758 33.8706C19.8905 33.7273 20.0051 33.584 20.1197 33.4693C19.174 32.3803 18.6868 31.3486 18.6868 30.5462C18.4576 30.4316 18.2856 30.1737 18.2856 29.8871C18.2283 29.5718 18.5435 29.228 18.9734 29.228ZM27.0836 38.0833C26.6538 39.2296 26.0806 40.0034 25.4788 40.3473C25.4215 40.6912 25.1349 40.9491 24.7623 40.9491C24.3898 40.9491 24.1032 40.6912 24.0459 40.3473C23.4154 40.0034 22.8709 39.2296 22.441 38.1119L22.4124 38.0833L22.7276 37.9973V38.026C23.1002 39.0003 23.5587 39.6595 24.0459 40.0034C24.1605 39.7168 24.4184 39.5162 24.7337 39.5162C25.0489 39.5162 25.3068 39.7168 25.4215 40.0034C25.9086 39.6595 26.3672 39.0003 26.7397 38.0546V38.026H26.7684C26.8544 38.026 26.9403 38.0546 26.9976 38.0546H27.055L27.0836 38.0833ZM24.1318 38.026C24.1318 37.7967 24.2178 37.1949 24.3038 36.9656C24.4184 36.8797 24.5904 36.8223 24.7623 36.8223C24.9629 36.8223 25.1349 36.8797 25.2782 36.9943C25.3641 37.2235 25.4215 37.7967 25.4215 38.026C25.4215 38.2552 24.877 38.4272 24.791 38.4558C24.6763 38.4272 24.1318 38.2839 24.1318 38.026ZM31.4683 35.7333C31.4396 35.7906 31.3823 35.8193 31.325 35.848C31.2677 35.8766 31.1817 35.8766 31.0957 35.9053H31.0384C30.9238 35.9053 30.8092 35.8766 30.7232 35.848C30.6945 35.8193 30.6659 35.8193 30.6372 35.7906C30.4366 35.8193 30.0641 35.9339 29.9494 35.9913C30.0067 35.9913 30.4939 36.0486 30.8665 36.3065C31.0384 36.3925 31.3537 36.4784 31.4683 36.4784C31.4683 36.5358 30.8951 36.937 29.8348 36.7077L29.5482 36.6504C29.061 36.5071 28.5738 36.4498 28.0867 36.5071C28.144 36.5358 28.2013 36.5358 28.2299 36.5644C28.3732 36.6217 28.4879 36.679 28.6025 36.7364C28.6312 36.7364 28.6312 36.765 28.6312 36.765C28.6598 36.765 28.6885 36.765 28.7171 36.765C28.7744 36.765 28.8031 36.7937 28.8604 36.7937C28.9177 36.8223 28.9751 36.851 29.0324 36.8797C29.1183 36.937 29.1757 36.9943 29.233 37.0516C29.2616 37.0803 29.2903 37.1376 29.2903 37.1662C29.319 37.2522 29.2903 37.3382 29.233 37.4242C29.0324 37.6534 28.8318 37.6534 28.6025 37.4242C28.6025 37.4242 28.5738 37.3955 28.5738 37.3668C28.5452 37.3382 28.4592 37.2522 28.4306 37.1376C28.4306 37.1089 28.4019 37.0803 28.4019 37.0516H28.3732C28.2873 36.9656 28.2013 36.9083 28.0867 36.8797C27.886 36.7937 27.6854 36.7364 27.5135 36.7077C27.4562 36.7077 27.4275 36.7077 27.3702 36.679C27.5422 36.7937 27.6854 36.9083 27.7714 37.0516L27.8001 37.0803C27.9147 37.2522 27.886 37.4242 27.972 37.5674C28.144 37.94 28.2013 37.94 28.3446 38.0833C28.2013 38.1406 27.3415 38.1119 26.9117 37.5388C26.883 37.5101 26.883 37.4815 26.8544 37.4528C26.7684 37.2522 26.6824 36.9943 26.6251 36.851C26.5678 36.679 26.6538 36.5358 26.5678 36.4784C26.4531 36.4211 26.3958 36.5071 26.3958 36.5071C26.3958 36.5071 26.3958 36.5071 26.3672 36.5358L26.3385 36.5644C26.3099 36.5931 26.2812 36.6217 26.2812 36.6504L26.2525 36.679C26.2239 36.7077 26.2239 36.7364 26.2239 36.7364L26.1952 36.765C26.1952 36.7937 26.1666 36.7937 26.1666 36.7937L26.1379 36.8223C26.1093 36.851 26.0806 36.851 26.0519 36.8223L26.0233 36.851C26.0233 36.851 25.9946 36.8797 25.966 36.8797C25.9086 36.9083 25.8513 36.9083 25.794 36.9083C25.7367 36.9083 25.6794 36.8797 25.6794 36.8223C25.6794 36.7937 25.6794 36.765 25.708 36.7364H25.6794C25.6507 36.7364 25.6221 36.765 25.5647 36.765C25.5074 36.765 25.4788 36.7364 25.4501 36.7077C25.4215 36.679 25.4215 36.6217 25.4501 36.5931C25.4788 36.5644 25.4501 36.5644 25.4501 36.5644C25.4215 36.5931 25.3641 36.6217 25.3355 36.6504C25.3068 36.679 25.2495 36.6504 25.2208 36.6217C25.1922 36.5931 25.1635 36.5644 25.1635 36.5071V36.4498V36.4211V36.3925C25.1635 36.3925 25.1635 36.3925 25.1635 36.3638H25.1349H25.1062C25.1062 36.3638 25.1062 36.3638 25.0776 36.3638C24.9916 36.3351 24.9056 36.3351 24.8483 36.3065H24.8196C24.8196 36.3065 24.8196 36.3065 24.791 36.3065C24.7337 36.3351 24.6477 36.3638 24.5617 36.3925C24.5617 36.3925 24.5617 36.3925 24.5331 36.3925H24.5044C24.4757 36.3925 24.4757 36.3925 24.4471 36.4211C24.4471 36.4211 24.4471 36.3925 24.4184 36.3925C24.4184 36.3925 24.4184 36.3638 24.3898 36.3638C24.4184 36.3351 24.4184 36.3065 24.4184 36.3065V36.2778C24.4184 36.2778 24.4184 36.2778 24.3898 36.2778C24.3611 36.2778 24.3038 36.2778 24.2751 36.2778C24.2751 36.3065 24.2751 36.3351 24.2465 36.3638L24.2178 36.3925C24.2178 36.4211 24.2178 36.4498 24.2178 36.4498V36.4784V36.5071C24.2178 36.5358 24.2178 36.5931 24.1892 36.6217C24.1605 36.6504 24.1032 36.6504 24.0745 36.6504C24.0459 36.6504 24.0459 36.6217 24.0172 36.6217C23.9886 36.6217 23.9886 36.5931 23.9599 36.5931C23.9599 36.5931 23.9599 36.5931 23.9312 36.5644C23.9312 36.5644 23.9312 36.5644 23.9026 36.5358C23.9026 36.5358 23.9026 36.5071 23.8739 36.5071V36.5358C23.8739 36.5358 23.8739 36.5358 23.8739 36.5644L23.9026 36.5931C23.9026 36.5931 23.9312 36.6217 23.9312 36.6504C23.9599 36.679 23.9312 36.7364 23.9312 36.765C23.9026 36.8223 23.8453 36.8223 23.7879 36.8223C23.7879 36.8223 23.7593 36.8223 23.7306 36.8223C23.702 36.8223 23.702 36.7937 23.6733 36.7937C23.702 36.8223 23.702 36.851 23.702 36.9083C23.702 36.9656 23.6447 36.9943 23.5873 36.9943C23.5587 36.9943 23.5014 36.9943 23.4727 36.9943C23.4727 36.9943 23.4441 36.9943 23.4441 36.9656C23.4441 36.9656 23.4154 36.937 23.3867 36.937C23.3581 36.9083 23.3581 36.9083 23.3294 36.9083C23.3008 36.937 23.2721 36.937 23.2434 36.9083L23.2148 36.8797C23.1861 36.851 23.1575 36.8223 23.1575 36.7937V36.765C23.1575 36.765 23.1575 36.765 23.1575 36.7364V36.7077L23.1288 36.679L23.1002 36.6504C22.9569 36.5358 22.8136 36.937 22.8136 36.937C22.2691 38.026 21.0368 38.2266 21.0368 38.1693C21.0368 38.1406 21.3234 38.026 21.4093 37.6248C21.4666 37.3955 21.4666 37.3382 21.5813 37.1376C21.6099 37.1089 21.6099 37.0803 21.6386 37.0516C21.7246 36.937 21.8392 36.851 21.9825 36.765C21.9252 36.765 21.8965 36.765 21.8392 36.7937C21.6673 36.8223 21.4666 36.8797 21.266 36.9656C21.1801 36.9943 21.0654 37.0803 20.9795 37.1376C20.9795 37.1376 20.9508 37.1376 20.9508 37.1662C20.9508 37.1949 20.9508 37.2235 20.9221 37.2522C20.8935 37.3095 20.8648 37.3955 20.8075 37.4528C20.8075 37.4815 20.7789 37.4815 20.7502 37.5101L20.7215 37.5388C20.5209 37.7681 20.2917 37.768 20.0911 37.5674C20.0624 37.5388 20.0624 37.5101 20.0624 37.4815C20.0337 37.3955 20.0337 37.3382 20.0337 37.2522C20.0624 37.1949 20.0911 37.1376 20.1197 37.0803C20.1484 37.0229 20.2057 36.9943 20.263 36.9656C20.3203 36.937 20.3776 36.9083 20.435 36.8797C20.4636 36.8797 20.5209 36.851 20.5782 36.851C20.6069 36.851 20.6356 36.851 20.6642 36.851C20.6642 36.8223 20.6929 36.8223 20.6929 36.8223C20.7502 36.7937 20.8075 36.765 20.8648 36.7364C20.9221 36.7077 20.9795 36.679 21.0368 36.6504C21.0654 36.6504 21.0941 36.6217 21.1228 36.6217C20.6642 36.5931 20.177 36.6504 19.7185 36.7937C19.6325 36.8223 19.5466 36.851 19.4319 36.851C18.8588 36.9943 17.7984 36.679 17.7984 36.6217C17.7984 36.5644 18.0563 36.5644 18.4002 36.3925C18.6008 36.2778 18.7728 36.1632 18.9447 36.1345C19.088 36.1059 19.3746 36.0772 19.4606 36.0772C19.346 36.0199 18.8301 35.9339 18.6582 35.9053C18.6295 35.9339 18.6008 35.9339 18.5722 35.9626C18.4576 36.0199 18.3429 36.0199 18.2283 36.0199C18.1423 36.0199 18.0563 35.9913 17.999 35.9626C17.9417 35.9339 17.8844 35.9053 17.8271 35.848C17.7984 35.7906 17.7411 35.7047 17.7698 35.5614C17.8271 35.3035 18.0563 35.2175 18.3143 35.3035C18.4576 35.3608 18.5722 35.4181 18.6582 35.5041C18.6868 35.5327 18.6868 35.5327 18.7155 35.5614C18.8874 35.59 19.088 35.6474 19.3173 35.762C19.5466 35.848 19.7185 35.9053 19.8618 35.9339C19.8331 35.9053 19.7758 35.8766 19.7185 35.848C19.6899 35.8193 19.6325 35.7906 19.5752 35.762C19.5179 35.7333 19.4606 35.7047 19.4033 35.676C19.0594 35.5041 18.7441 35.3608 18.4862 35.0742C18.2856 34.8736 18.2569 34.7016 18.1996 34.5297C18.1137 34.0425 17.8844 33.7846 17.9417 33.7559C17.9704 33.6986 18.7728 34.0998 19.0594 34.4151C19.26 34.6443 19.2886 34.8163 19.346 34.9596V34.9882C19.4033 35.1602 19.5752 35.3321 19.8331 35.5041C19.8618 35.5327 19.8905 35.5614 19.9478 35.5614C19.8905 35.4754 19.8331 35.3894 19.7758 35.3035C19.7758 35.2748 19.7758 35.2748 19.7472 35.2461C19.7185 35.2175 19.6898 35.2175 19.6612 35.1888C19.6325 35.1602 19.6039 35.1315 19.5752 35.1029C19.5466 35.0455 19.5179 34.9882 19.4892 34.9309C19.4319 34.759 19.4033 34.6157 19.4606 34.501C19.4892 34.4437 19.5466 34.3577 19.6899 34.3291C19.9191 34.2718 20.0911 34.4151 20.177 34.7016C20.177 34.759 20.177 34.8449 20.177 34.9022C20.177 34.9596 20.177 35.0169 20.1484 35.0455C20.1484 35.0742 20.1484 35.0742 20.1197 35.1029L20.1484 35.1315C20.263 35.5041 20.5496 35.7906 20.8648 35.9913C20.4636 35.6474 20.263 34.8736 20.2917 34.8449C20.349 34.8163 20.7215 35.0455 21.0654 35.1602C21.266 35.2461 21.4093 35.3321 21.5813 35.4181C21.6959 35.4754 21.7819 35.5614 21.8965 35.6474C21.9825 35.7333 22.0685 35.7906 22.1258 35.8766L22.1544 35.9053C22.2118 35.9626 22.2691 36.0199 22.2977 36.0486C22.3264 36.0772 22.3837 36.1059 22.4124 36.1345C22.527 36.1919 22.6703 36.1345 22.6703 36.1345C22.6989 36.1345 22.7563 36.1059 22.8422 36.1059C22.8422 36.1059 22.8422 36.0772 22.8709 36.0772C22.8995 36.0486 22.8995 36.0486 22.8995 36.0486C22.9569 35.9913 23.0142 35.9626 23.0715 35.9626C23.0715 35.9339 23.0715 35.9339 23.0715 35.9053C23.1002 35.8193 23.1575 35.7333 23.2434 35.676C23.2721 35.676 23.3008 35.6474 23.3294 35.6474C23.3581 35.6474 23.3581 35.6474 23.3867 35.6474C23.4154 35.6474 23.4154 35.6474 23.4441 35.6474C23.4727 35.6474 23.5014 35.6474 23.5014 35.6474C23.53 35.59 23.5587 35.5614 23.616 35.5327C23.616 35.5327 23.616 35.5327 23.6447 35.5327C23.7593 35.4754 23.9312 35.5041 24.0172 35.59C24.0745 35.6474 24.1032 35.7047 24.1032 35.762C24.1032 35.762 24.1032 35.7906 24.1032 35.8193C24.1032 35.848 24.1032 35.8766 24.1032 35.9053C24.1032 35.9339 24.1032 35.9913 24.1318 36.0199C24.2178 36.0199 24.2751 36.0199 24.3611 36.0199H24.3898C24.3898 36.0199 24.3898 36.0199 24.4184 36.0199C24.4471 36.0199 24.5044 36.0199 24.5331 36.0486C24.5904 36.0486 24.6477 36.0772 24.705 36.0772C24.7623 36.0486 24.8196 36.0486 24.8483 36.0486C24.877 36.0486 24.9343 36.0199 24.9629 36.0199C24.9629 36.0199 24.9629 36.0199 24.9916 36.0199H25.0202C25.0489 36.0199 25.0776 36.0199 25.1062 36.0199C25.1062 35.9626 25.1349 35.9053 25.1349 35.848C25.1349 35.7906 25.1349 35.7333 25.1635 35.7047C25.1635 35.676 25.1922 35.6474 25.2208 35.6187C25.2495 35.59 25.2495 35.59 25.2782 35.5614C25.3641 35.5041 25.5074 35.4754 25.5934 35.5327L25.6221 35.5614C25.6794 35.59 25.708 35.6187 25.708 35.676C25.7367 35.676 25.794 35.676 25.8227 35.676C25.8513 35.676 25.88 35.676 25.88 35.7047C25.9086 35.7047 25.9086 35.7047 25.9373 35.7333C26.0233 35.7906 26.0806 35.8766 26.1092 35.9626V35.9913H26.1379C26.1666 35.9913 26.1952 35.9913 26.2239 35.9913H26.2525C26.2525 35.9913 26.5391 35.9913 26.6251 36.0199L26.9117 36.0486C26.9403 36.0199 26.969 35.9913 27.0263 35.9339C27.0836 35.848 27.1696 35.7906 27.2556 35.7047C27.3415 35.6187 27.4562 35.5327 27.5708 35.4754C27.7428 35.3608 27.9434 35.3321 28.144 35.2461C28.7171 34.9882 28.7744 34.673 28.8318 34.7016C28.8891 34.7303 28.6885 35.676 28.3159 36.0199C28.6312 35.8193 28.9177 35.5327 29.0324 35.1888C29.0324 35.1888 29.0324 35.1602 29.061 35.1602C29.061 35.1315 29.0324 35.1315 29.0324 35.1029C29.0324 35.0455 29.0037 35.0169 29.0037 34.9596C29.0037 34.9022 29.0037 34.8449 29.0037 34.759C29.0897 34.4437 29.2616 34.3291 29.4909 34.3864C29.6342 34.4151 29.6915 34.501 29.7202 34.5583C29.7775 34.673 29.7775 34.8163 29.6915 34.9882C29.6628 35.0455 29.6342 35.1029 29.6055 35.1602C29.5769 35.2175 29.5482 35.2461 29.5196 35.2748C29.4909 35.3035 29.4622 35.3035 29.4336 35.3321C29.4336 35.3608 29.4336 35.3608 29.4336 35.3894C29.3763 35.4754 29.3189 35.5614 29.233 35.676C29.2616 35.6474 29.3189 35.6187 29.3476 35.59C29.6342 35.3608 29.8061 35.2175 29.8348 35.0455C29.8921 34.8736 29.9208 34.7016 30.1214 34.501C30.3793 34.2145 30.4366 34.1285 30.7805 33.9565C30.8665 33.9279 31.239 33.8132 31.2677 33.8706C31.2964 33.9279 30.9811 34.0425 30.8665 34.6443C30.8092 34.8163 30.7805 35.1029 30.5799 35.3035C30.3506 35.5614 30.15 35.6187 29.8061 35.7906L29.7488 35.8193C29.6915 35.848 29.6055 35.8766 29.5482 35.9339C29.4622 35.9913 29.3763 36.0199 29.3189 36.0772C29.4909 36.0486 29.6628 35.9913 29.8921 35.8766C30.0927 35.7906 30.2933 35.7333 30.4939 35.676C30.4939 35.6474 30.5226 35.6187 30.5512 35.6187C30.6086 35.5327 30.7232 35.4754 30.8951 35.4467C31.1817 35.3608 31.3823 35.4754 31.4396 35.7047C31.5543 35.59 31.497 35.676 31.4683 35.7333Z" fill="#A339C0" fill-opacity="0.8"/>
<path d="M41.4191 24.2745C42.2788 23.8733 43.7117 22.9275 44.2849 22.2397C43.4825 21.9818 41.8776 21.8099 40.9605 21.7812C42.852 20.4916 42.9093 17.7404 42.3648 15.7344C41.9349 17.3392 40.7886 18.6288 40.0148 19.4313C40.0721 20.205 39.8429 21.5806 39.413 22.4117C40.0435 22.641 40.7599 23.0135 41.2758 23.3861C40.9319 23.8159 40.1868 24.5037 39.7282 24.8476C40.1295 25.2488 40.7886 26.0226 41.0752 26.4525C40.6453 26.7677 39.6996 27.1403 39.2124 27.3122C39.4417 27.7994 39.7856 28.6878 39.9002 29.3183C39.3557 29.4043 38.5819 29.4616 37.7795 29.4616C37.8082 30.0634 37.7222 30.9805 37.6362 31.525C36.8911 31.4676 36.0314 31.1524 35.6301 30.9805C35.4295 31.7829 34.9137 32.5853 34.885 32.6426C34.1686 31.8688 33.5095 31.5536 32.879 31.5823V31.0664C33.5095 31.0378 34.1686 31.3243 34.6844 31.8115C34.9137 31.4103 35.143 30.6366 35.2289 30.2353C35.6875 30.4933 36.4039 30.7512 37.0631 30.8372C37.1204 30.2927 37.1777 29.5476 37.0917 28.9457C37.7222 29.003 38.4386 29.003 39.1264 28.8598C39.0118 28.3439 38.5819 27.4842 38.2953 27.0256C38.9545 26.8537 39.7283 26.5385 40.1295 26.3092C39.8142 25.8793 39.2124 25.1915 38.8112 24.8476C39.2984 24.5324 40.0148 23.9306 40.3014 23.558C39.8142 23.2428 39.0978 22.8702 38.5246 22.6696C39.2984 21.552 39.499 19.3453 39.327 18.3423C38.6106 20.6636 36.5759 22.383 35.3436 23.1855C35.2863 23.2141 35.2289 23.2714 35.1716 23.3288C35.1143 23.3861 34.885 23.6727 34.9997 24.0165C35.0283 24.1025 35.0283 24.2172 35.057 24.2745C35.143 24.733 35.143 25.4208 34.4838 26.0513C33.9393 26.5958 33.2229 26.5958 32.8217 26.5671V25.3348C32.8217 25.1629 32.6784 25.0482 32.5351 25.0482H31.704L31.3314 24.6184C31.3314 24.6184 31.7327 24.647 32.1912 24.5897C32.6497 24.5611 33.1369 24.3318 33.1369 24.3318C33.1369 24.3318 32.6211 24.3318 32.3918 24.2745C32.1339 24.2172 31.5034 23.9879 30.9875 23.3861C30.8156 23.1568 30.6437 22.9275 30.529 22.6983C30.0418 22.2971 29.5833 21.7526 29.2394 21.0075C29.0388 20.5203 28.8955 19.7752 28.8669 19.288C28.7236 19.4313 28.523 19.6319 28.2937 19.9184C27.9211 20.4343 27.7205 21.1794 27.7205 21.1794L27.5772 21.7239L27.2907 21.2367C27.262 21.2081 26.8894 20.5776 26.8321 19.7178C26.8035 19.3453 26.8321 18.9727 26.8608 18.6862C26.7175 18.7721 26.5742 18.8581 26.4023 18.9727C25.7145 19.4599 25.3419 20.0044 25.3419 20.0044C24.9694 20.463 24.7974 20.8355 24.7114 21.0648C24.6255 20.8642 24.4535 20.4916 24.081 20.0044C24.081 20.0044 23.7084 19.4599 23.0206 18.9727C22.8487 18.8581 22.7054 18.7721 22.5621 18.6862C22.5907 18.9727 22.6194 19.3453 22.5907 19.7178C22.5334 20.5776 22.1322 21.2081 22.1322 21.2367L21.8456 21.7239L21.7597 21.2367C21.7597 21.2367 21.5591 20.4916 21.1865 19.9758C20.9859 19.6892 20.7853 19.4886 20.6133 19.3453C20.556 19.8325 20.4414 20.5776 20.2408 21.0648C19.9255 21.8099 19.4384 22.3544 18.9512 22.7556C18.8365 22.9849 18.6932 23.2428 18.4926 23.4434C17.9768 24.0452 17.3463 24.2745 17.0884 24.3318C16.8305 24.3891 16.3433 24.3891 16.3433 24.3891C16.3433 24.3891 16.8591 24.6184 17.289 24.647C17.7475 24.6757 18.1487 24.6757 18.1487 24.6757L17.7762 25.1056H16.9451C16.7732 25.1056 16.6585 25.2488 16.6585 25.3921V26.6244C16.2573 26.6531 15.5409 26.6531 14.9964 26.1086C14.3372 25.4781 14.3372 24.7903 14.4232 24.3318C14.4519 24.2458 14.4805 24.1598 14.4805 24.0739C14.5951 23.7013 14.3659 23.4147 14.3086 23.3861C14.2513 23.3288 14.1939 23.3001 14.1366 23.2428C12.8757 22.383 10.8696 20.6636 10.1532 18.3423C9.9812 19.3453 10.1818 21.552 10.9556 22.6696C10.3824 22.8989 9.66597 23.2428 9.17878 23.558C9.49402 23.9019 10.2105 24.5037 10.669 24.8476C10.2678 25.1915 9.66597 25.8507 9.35073 26.3092C9.75194 26.5385 10.5544 26.8537 11.1848 27.0256C10.8983 27.5128 10.4397 28.3726 10.3538 28.8598C11.0416 29.003 11.758 29.003 12.3885 28.9457C12.3025 29.5476 12.3598 30.2927 12.4171 30.8372C13.0763 30.7512 13.7641 30.4933 14.2513 30.2353C14.3372 30.6366 14.5951 31.4103 14.7958 31.8115C15.3116 31.3243 15.9707 31.0664 16.6012 31.0664V31.5823C15.9994 31.5823 15.3116 31.8975 14.5951 32.6426C14.5665 32.614 14.0793 31.8115 13.85 30.9805C13.4488 31.1811 12.5891 31.4676 11.844 31.525C11.7293 30.9805 11.672 30.0634 11.7007 29.4616C10.8983 29.4616 10.1532 29.4043 9.57999 29.3183C9.66597 28.6878 10.0099 27.7994 10.2678 27.3122C9.7806 27.1403 8.83488 26.7677 8.40501 26.4525C8.69159 26.0226 9.35073 25.2488 9.75194 24.8476C9.29341 24.4751 8.5483 23.8159 8.20441 23.3861C8.72025 22.9849 9.46536 22.641 10.0672 22.4117C9.63731 21.5806 9.37939 20.205 9.46536 19.4313C8.69159 18.6288 7.54527 17.3392 7.1154 15.7344C6.5709 17.7404 6.62821 20.5203 8.51964 21.7812C7.60259 21.8099 5.99774 21.9818 5.19531 22.2397C5.73982 22.8989 7.20138 23.8733 8.06112 24.2745C7.40198 24.5324 6.16969 25.1915 5.6825 25.6501C6.34163 26.0513 7.74588 26.5098 8.43367 26.6531C8.03246 26.9683 7.23003 27.8854 6.94345 28.4012C7.48796 28.5732 8.63428 28.7165 9.37939 28.7738C9.15012 29.261 8.8922 30.1207 8.80622 30.6939C9.17878 30.7225 10.3824 30.6652 10.9556 30.5219C10.8983 31.0091 10.9269 31.8975 11.0129 32.2701C11.6147 32.1841 12.4458 31.9548 12.8184 31.7829C12.933 32.2127 13.3342 33.1585 13.4775 33.3877C13.7354 33.3304 14.022 33.2444 14.3086 33.1585C15.0823 32.8719 15.9707 33.2158 16.3146 33.9609C16.8878 35.2792 16.6585 36.8267 15.5695 36.5115C14.3086 36.7121 15.1683 38.3169 14.4519 38.8328C15.4262 39.4919 15.7415 37.9157 16.9451 38.1736C16.8305 38.7754 16.8305 39.8358 16.9164 40.2657C17.3177 39.9504 17.8622 39.7212 18.2347 39.6925C18.1487 40.0364 18.0628 40.8388 18.2061 41.3547C18.464 41.1541 20.0688 40.7528 20.0688 40.7528C20.0688 40.7528 19.4384 42.0425 19.8396 43.2748C20.0402 43.4467 21.5304 42.7302 21.5304 42.3004C21.5591 42.8162 20.9572 43.9625 20.0115 44.1631C21.0432 45.1662 21.9603 45.1375 22.0749 45.1375C22.2182 45.1375 22.3615 45.1089 22.5048 45.0515C22.4188 45.3381 22.3901 45.7107 22.4475 45.9686C22.5048 45.9686 22.5621 45.9686 22.6481 45.9686C22.906 45.9686 23.1352 45.9399 23.3358 45.8253C23.3645 46.0832 23.4791 46.4271 23.6797 46.6564C23.7084 46.7137 23.7657 46.7424 23.7944 46.771C24.0236 46.771 24.5968 46.5131 24.7114 46.3412C24.8261 46.5131 25.3992 46.771 25.6285 46.771C25.6858 46.7424 25.7145 46.6851 25.7431 46.6564C25.9437 46.4271 26.0584 46.1119 26.087 45.8253C26.2876 45.9399 26.5169 45.9686 26.7748 45.9686C26.8321 45.9686 26.8894 45.9686 26.9754 45.9686C27.0327 45.7107 27.0041 45.3668 26.9181 45.0515C27.0614 45.1089 27.2047 45.1375 27.348 45.1375C27.4913 45.1375 28.3797 45.1662 29.4114 44.1631C28.4656 43.9625 27.8352 42.8162 27.8925 42.3004C27.9211 42.7589 29.3827 43.4467 29.5833 43.2748C29.9845 42.0425 29.354 40.7528 29.354 40.7528C29.354 40.7528 30.9589 41.1541 31.2168 41.3547C31.3601 40.8388 31.2741 40.0364 31.1882 39.6925C31.5607 39.7212 32.1052 39.9504 32.5064 40.2657C32.5924 39.8358 32.6211 38.7754 32.4778 38.1736C33.6814 37.9157 33.968 39.4919 34.971 38.8328C34.2546 38.3169 35.143 36.7407 33.8534 36.5115C32.7357 36.8267 32.5351 35.2792 33.1082 33.9609C33.4235 33.2158 34.3405 32.8719 35.1143 33.1585C35.4009 33.2731 35.6875 33.3304 35.9454 33.3877C36.0887 33.1585 36.4899 32.2414 36.6045 31.7829C37.0057 31.9262 37.8368 32.1841 38.41 32.2701C38.496 31.8975 38.496 31.0091 38.4673 30.5219C39.0691 30.6652 40.2728 30.7225 40.6166 30.6939C40.5593 30.1207 40.2728 29.261 40.0435 28.7738C40.7599 28.7451 41.9063 28.5732 42.4794 28.4012C42.1928 27.914 41.3904 26.997 40.9892 26.6531C41.6483 26.5098 43.0812 26.0513 43.7404 25.6501C43.3105 25.1915 42.1069 24.5324 41.4191 24.2745ZM32.1912 37.1133C32.1625 37.1992 32.1052 37.2852 32.0479 37.3999C32.0192 37.4285 32.0192 37.4572 31.9906 37.4858C31.9333 37.5431 31.9046 37.6291 31.8473 37.6864C31.8186 37.7151 31.79 37.7724 31.7613 37.8011C31.6753 37.887 31.618 37.973 31.5321 38.0876C31.4747 38.145 31.4174 38.2023 31.3601 38.2596C31.3028 38.3169 31.2741 38.3456 31.2168 38.4029C31.1595 38.4602 31.0735 38.5462 30.9875 38.6035C30.9589 38.6321 30.9016 38.6895 30.8729 38.7181C30.6723 38.8901 30.4717 39.0334 30.2711 39.2053C29.9845 39.4059 29.6979 39.6065 29.3827 39.7785C29.2681 39.8358 29.1534 39.8931 29.0388 39.9504C26.4882 41.2687 25.1986 42.2717 24.8261 42.587H24.7974C24.4249 42.2717 23.1639 41.24 20.5847 39.9504C20.47 39.8931 20.3554 39.8358 20.2408 39.7785C19.9255 39.6065 19.6103 39.4059 19.3524 39.2053C19.1231 39.062 18.9225 38.8901 18.7506 38.7181C18.6932 38.6895 18.6646 38.6321 18.6359 38.6035C18.55 38.5462 18.4926 38.4602 18.4067 38.4029C18.3494 38.3456 18.3207 38.3169 18.2634 38.2596C18.2061 38.2023 18.1487 38.145 18.0914 38.0876C18.0055 38.0017 17.9195 37.887 17.8622 37.8011C17.8335 37.7724 17.8048 37.7151 17.7762 37.6864C17.7189 37.6291 17.6616 37.5431 17.6329 37.4858C17.6042 37.4572 17.5756 37.4285 17.5756 37.3999C17.5183 37.3139 17.461 37.1992 17.4323 37.1133C17.0884 36.3682 17.1457 35.7663 17.1457 35.7663V35.7377V25.7933C17.1457 25.6214 17.289 25.5068 17.4323 25.5068H18.292H24.8261H31.3601H32.2198C32.3918 25.5068 32.5064 25.6501 32.5064 25.7933V35.7377V35.7663C32.4778 35.7377 32.5351 36.3682 32.1912 37.1133Z" fill="#A339C0" fill-opacity="0.8"/>
<path d="M31.8665 9.74081C32.067 9.74081 32.2389 9.56895 32.2389 9.36845C32.2389 9.16795 32.067 8.99609 31.8665 8.99609C31.666 8.99609 31.4941 9.16795 31.4941 9.36845C31.4941 9.56895 31.666 9.74081 31.8665 9.74081Z" fill="#A339C0" fill-opacity="0.8"/>
<path d="M31.8706 11.8628C32.1286 11.8628 32.3292 10.8884 32.3292 10.4299C32.3292 10.1719 32.1286 10 31.8706 10C31.6127 10 31.4121 10.1719 31.4121 10.4299C31.4121 10.9171 31.6127 11.8628 31.8706 11.8628Z" fill="#A339C0" fill-opacity="0.8"/>
<path d="M31.6444 8.3635H32.1318L32.0458 7.76137L32.6766 7.81871V7.3026L32.0458 7.38862L32.1318 6.75781H31.6444L31.7017 7.38862L31.0996 7.3026V7.81871L31.7017 7.76137L31.6444 8.3635Z" fill="#A339C0" fill-opacity="0.8"/>
<path d="M29.6656 13.0132C29.8375 13.0418 30.0095 13.0705 30.1814 13.0992C30.2101 13.0992 30.2101 13.0992 30.2387 13.0992H30.2674H30.3247C30.3534 13.0992 30.382 13.0992 30.4107 13.0992H30.4966C30.554 13.0992 30.6113 13.0992 30.6399 13.0992C30.6686 13.0992 30.6972 13.0992 30.7546 13.0992C30.8119 13.0992 30.8405 13.0992 30.8979 13.0992C31.3564 13.0705 31.8436 12.9845 32.2448 12.8699C32.6747 12.7839 33.1905 12.6693 33.6777 12.6406H33.7063C33.735 12.6406 33.7637 12.6406 33.7923 12.6406H33.821H33.8496H33.8783H33.9069H33.9356H33.9643H33.9929H34.0502H34.0789C34.1076 12.6406 34.1076 12.6406 34.1362 12.6406C34.2795 12.1534 34.4228 11.5516 34.4228 11.2364C34.4228 10.5486 34.0502 9.80348 32.732 9.57422C32.732 10.4053 32.3308 12.4114 31.8436 12.4114H31.7863C31.2991 12.4114 30.8979 10.4053 30.8979 9.57422C29.5796 9.80348 29.207 10.5486 29.207 11.2364C29.207 11.6089 29.379 12.3827 29.5509 12.8986C29.6369 12.9272 29.6369 12.9845 29.6656 13.0132Z" fill="#A339C0" fill-opacity="0.8"/>
<path d="M36.5075 9.40244C36.5362 9.40244 36.135 8.45673 36.7654 8.22747C37.3959 7.96954 36.5362 8.14149 36.9947 6.85188C37.5105 5.333 38.6569 5.70556 38.6569 5.70556C37.8544 5.07508 37.2526 5.1324 36.7941 5.47629C36.5362 5.6769 36.135 6.13543 35.8484 7.05249C35.4758 8.22747 35.877 9.28781 36.5075 9.40244Z" fill="#A339C0" fill-opacity="0.8"/>
<path d="M39.4397 7.19454C39.497 9.08597 42.6494 9.85974 42.6494 9.85974C42.6494 9.85974 40.8153 8.54147 41.1879 7.59575C41.1879 7.59575 42.3915 8.1116 43.7671 7.88234C40.844 7.28052 41.7897 6.36346 41.1019 5.61835C40.3854 4.84458 39.2105 4.75861 38.9239 4.72995C38.1788 4.67264 38.1501 4.70129 37.2617 4.87324C39.2105 4.9019 39.4111 5.93359 39.4397 7.19454Z" fill="#A339C0" fill-opacity="0.8"/>
<path d="M39.0064 10.7246C39.4363 9.23437 38.6625 8.57524 38.6625 8.57524C38.4333 8.31732 37.2296 8.34597 36.7997 8.63255C36.7997 8.63255 37.9461 8.6039 37.7741 10.2661C37.6022 11.9282 35.3382 12.2435 34.7077 12.3294L34.6504 12.53C35.7107 12.5587 38.6052 12.2148 39.0064 10.7246Z" fill="#A339C0" fill-opacity="0.8"/>
<path d="M27.1437 10.6875H25.9688C26.5419 12.2637 28.1754 12.8082 29.2644 12.9515L29.2071 12.7795C28.1181 12.321 27.5163 11.8625 27.1437 10.6875Z" fill="#A339C0" fill-opacity="0.8"/>
<path d="M17.6595 9.74081C17.86 9.74081 18.0318 9.56895 18.0318 9.36845C18.0318 9.16795 17.86 8.99609 17.6595 8.99609C17.459 8.99609 17.2871 9.16795 17.2871 9.36845C17.2871 9.56895 17.459 9.74081 17.6595 9.74081Z" fill="#A339C0" fill-opacity="0.8"/>
<path d="M17.6597 11.8628C17.9176 11.8628 18.1182 10.8884 18.1182 10.4299C18.1182 10.1719 17.9176 10 17.6597 10C17.4018 10 17.2012 10.1719 17.2012 10.4299C17.2012 10.9171 17.4018 11.8628 17.6597 11.8628Z" fill="#A339C0" fill-opacity="0.8"/>
<path d="M17.4022 8.3635H17.8896L17.8323 7.76137L18.4344 7.81871V7.3026L17.8323 7.38862L17.8896 6.75781H17.4022L17.4882 7.38862L16.8574 7.3026V7.81871L17.4882 7.76137L17.4022 8.3635Z" fill="#A339C0" fill-opacity="0.8"/>
<path d="M15.3661 12.6667H15.4234H15.4807H15.5093H15.538H15.5667H15.5953H15.624H15.6526H15.6813C15.71 12.6667 15.7386 12.6667 15.7673 12.6667H15.7959C16.3118 12.6953 16.799 12.8099 17.2288 12.8959C17.6587 12.9819 18.1459 13.0965 18.5758 13.1252C18.6331 13.1252 18.6617 13.1252 18.719 13.1252C18.7477 13.1252 18.7764 13.1252 18.8337 13.1252C18.891 13.1252 18.9483 13.1252 18.977 13.1252H19.0629C19.0916 13.1252 19.1203 13.1252 19.1489 13.1252H19.2062H19.2349C19.2635 13.1252 19.2635 13.1252 19.2922 13.1252C19.4642 13.0965 19.6648 13.0679 19.8081 13.0392C19.8081 13.0106 19.8367 12.9819 19.8367 12.9532C20.0087 12.4374 20.1806 11.6636 20.1806 11.2911C20.1806 10.6033 19.8081 9.85817 18.4898 9.62891C18.4898 10.46 18.0886 12.4661 17.6014 12.4661H17.5441C17.0569 12.4661 16.6557 10.46 16.6557 9.62891C15.3374 9.85817 14.9648 10.6033 14.9648 11.2911C14.9648 11.6063 15.1081 12.2081 15.2514 12.6953C15.3374 12.6667 15.3661 12.6667 15.3661 12.6667Z" fill="#A339C0" fill-opacity="0.8"/>
<path d="M10.8594 5.70641C10.8594 5.70641 12.0057 5.36251 12.5215 6.85273C12.9801 8.14234 12.1203 7.97039 12.7508 8.22832C13.3813 8.48624 12.9801 9.4033 12.9801 9.4033H13.0087C13.6392 9.28866 14.0404 8.22832 13.6679 7.02468C13.3813 6.10762 12.9801 5.67775 12.7221 5.44849C12.2636 5.13325 11.6618 5.07593 10.8594 5.70641Z" fill="#A339C0" fill-opacity="0.8"/>
<path d="M8.31296 7.57065C8.68551 8.54503 6.8514 9.83464 6.8514 9.83464C6.8514 9.83464 10.0038 9.06087 10.0611 7.16944C10.0898 5.90849 10.2904 4.8768 12.2105 4.84814C11.3507 4.64753 11.2934 4.64753 10.5483 4.70485C10.2904 4.73351 9.11538 4.81948 8.37028 5.59325C7.65382 6.33836 8.6282 7.25542 5.70508 7.85724C7.10932 8.0865 8.31296 7.57065 8.31296 7.57065Z" fill="#A339C0" fill-opacity="0.8"/>
<path d="M11.7549 10.2661C11.5829 8.6039 12.7293 8.63255 12.7293 8.63255C12.2994 8.34597 11.0958 8.31732 10.8665 8.57524C10.8665 8.57524 10.0927 9.20572 10.5226 10.7246C10.9525 12.2148 13.8183 12.5587 14.8786 12.5587L14.8213 12.3581C14.1908 12.2721 11.8982 11.9282 11.7549 10.2661Z" fill="#A339C0" fill-opacity="0.8"/>
<path d="M23.5509 10.6875H22.3759C22.0034 11.8911 21.4015 12.321 20.2839 12.7795L20.2266 12.9515C21.3442 12.7795 22.9777 12.235 23.5509 10.6875Z" fill="#A339C0" fill-opacity="0.8"/>
<path d="M26.2549 17.6563C25.911 18.2008 25.6244 18.7453 25.4238 19.2898C25.6244 19.0892 25.8824 18.8599 26.1976 18.6307C26.7134 18.2581 27.1433 18.0862 27.172 18.0575L27.6305 17.8569L27.5159 18.3441C27.5159 18.3441 27.3439 19.0605 27.4012 19.7197C27.4299 20.0062 27.4872 20.2642 27.5732 20.4934C27.6878 20.2355 27.8311 19.9203 28.0317 19.6624C28.5762 18.9172 29.0634 18.6593 29.0921 18.6593L29.436 18.4874L29.4646 18.8599C29.4646 18.8599 29.5506 20.1782 29.8372 20.8373C30.353 22.0123 31.2987 22.6141 31.9005 22.9007C31.8146 22.8147 31.7286 22.7288 31.614 22.6141C31.356 22.3275 31.0408 21.8117 30.8975 20.7227C30.7829 19.8056 31.1268 18.8886 31.2701 18.602C31.3274 18.8599 31.442 19.0605 31.5566 19.1178C31.5566 19.1178 31.528 18.9172 31.5853 18.6593C31.6713 18.0288 32.3877 17.0831 33.2761 16.4813C33.4767 16.338 33.62 16.252 33.7633 16.1661C33.9066 16.0801 34.0212 15.9941 34.1932 15.9081C34.0212 15.9368 33.7633 15.9655 33.6487 15.9941H33.5914C33.4767 15.9941 33.2761 16.0228 33.0755 16.0228C32.6457 16.0228 32.1012 15.9655 31.6999 15.6216C31.2987 15.3063 31.1268 14.9338 31.0695 14.6759C30.8975 14.6759 30.6682 14.6759 30.353 14.6472C30.0091 14.6185 29.7225 14.5612 29.5219 14.5039C29.0921 14.7905 28.6049 14.9051 28.0317 14.9338C27.9744 14.9338 27.8598 14.9338 27.7738 14.9338C27.9457 15.0771 28.1463 15.1917 28.3756 15.3063H28.4043L28.261 15.3636C28.2037 15.421 27.4299 15.8508 26.2549 17.6563Z" fill="#A339C0" fill-opacity="0.8"/>
<path d="M33.6712 14.4779C33.4707 14.4492 33.2702 14.4492 33.041 14.4492C33.041 14.5924 33.041 14.707 33.0697 14.8216C33.0983 14.9934 33.1842 15.1367 33.2988 15.2226C33.4707 15.0794 33.6139 14.8502 33.6712 14.4779Z" fill="#A339C0" fill-opacity="0.8"/>
<path d="M34.1392 13.1524C34.1106 13.1524 34.1106 13.1524 34.1392 13.1524H34.1106H34.0819H34.0533C34.0246 13.1524 33.9673 13.1524 33.9386 13.1524C33.4801 13.1811 33.0216 13.267 32.5917 13.3817C32.1332 13.4963 31.646 13.6109 31.1302 13.6109C31.0442 13.6109 30.9295 13.6109 30.8436 13.6109C30.7863 13.6109 30.7289 13.6109 30.6716 13.6109C30.643 13.6109 30.6143 13.6109 30.5856 13.6109C30.557 13.6109 30.4997 13.6109 30.471 13.6109C30.471 13.6109 30.471 13.6109 30.4424 13.6109C30.4424 13.6109 30.4424 13.6109 30.4137 13.6109H30.385H30.3564C30.3564 13.6109 30.3564 13.6109 30.3277 13.6109H30.2991C30.2991 13.6109 30.2991 13.6109 30.2704 13.6109C30.2704 13.6109 30.2704 13.6109 30.2418 13.6109C29.2387 13.4677 28.5223 13.1524 28.207 12.9805C28.293 13.0664 28.379 13.2097 28.5223 13.353C28.5796 13.4103 28.6369 13.4677 28.6942 13.525C28.8375 13.6396 28.9808 13.7542 29.1527 13.8689C29.4107 13.9835 30.3277 14.3847 31.5887 14.2128C33.0216 14.0122 33.2795 14.0408 33.6234 14.0408H33.738C34.2252 14.0695 34.9703 14.4134 35.2856 14.5853C35.4289 14.2987 35.5435 14.0122 35.6295 13.6969C35.5435 13.6109 35.4575 13.525 35.2569 13.439C35.1996 13.4103 35.1423 13.3817 35.0563 13.353C34.913 13.2957 34.7411 13.267 34.5405 13.2384C34.3399 13.1811 34.2539 13.1524 34.1392 13.1524Z" fill="#A339C0" fill-opacity="0.8"/>
<path d="M38.1199 17.8535C38.1199 17.8248 38.1486 17.8248 38.1199 17.8535C38.0626 17.8535 37.5754 18.1401 36.4864 17.4236C35.4261 16.7358 34.595 16.4206 34.1651 16.3633C34.0505 16.4206 33.9645 16.4779 33.8785 16.5352C33.7352 16.6212 33.5919 16.6785 33.42 16.8218C33.3627 16.8505 33.3054 16.9078 33.248 16.9364C33.2767 16.9364 33.3054 16.9651 33.3627 16.9651C34.3657 17.0511 35.1681 17.6816 35.2541 17.8822C35.2541 17.9108 35.2828 17.9108 35.2828 17.8822C35.3974 17.5383 35.2541 17.2803 35.2541 17.2803C35.2541 17.2803 35.7126 17.5669 36.6297 18.1114C37.5467 18.6559 37.9766 18.0541 38.1199 17.8535Z" fill="#A339C0" fill-opacity="0.8"/>
<path d="M32.6744 15.0198C32.5884 14.9624 32.5311 14.8765 32.5025 14.7618C32.4738 14.6759 32.4451 14.5899 32.4165 14.5039C32.1872 14.5326 31.9006 14.5612 31.5281 14.6185C31.4421 14.6185 31.3848 14.6472 31.2988 14.6472C31.4421 14.9624 31.7574 15.335 32.3592 15.4783C32.3878 15.4783 32.4451 15.5069 32.4738 15.5069C32.5025 15.5069 32.5598 15.5069 32.5884 15.5356C32.8464 15.5643 33.0756 15.5929 33.3049 15.5929C33.6774 15.5929 34.1646 15.5356 34.5945 15.421C34.6805 15.3063 34.7951 15.163 34.8811 15.0198C34.8524 14.9911 34.8238 14.9911 34.7664 14.9624C34.6805 14.9051 34.3652 14.7332 34.2219 14.6759C34.1646 14.8478 34.0787 15.0198 33.9354 15.1057C33.7634 15.2204 33.5628 15.3063 33.3335 15.3063C33.1043 15.3063 32.9037 15.249 32.7317 15.1344C32.7317 15.0771 32.7031 15.0484 32.6744 15.0198Z" fill="#A339C0" fill-opacity="0.8"/>
<path d="M35.7447 14.2188C35.4008 15.1071 34.8563 15.8236 34.4551 16.1388C37.0056 15.451 37.4642 16.7407 37.4642 16.798C37.4642 16.8553 37.4928 16.8553 37.5215 16.8266C37.5788 16.7693 38.4099 15.8523 37.8081 14.9925C37.2922 14.3047 36.1172 14.2188 35.7447 14.2188ZM35.7447 14.8779C35.8307 14.7633 35.9166 14.534 35.9166 14.534C36.1172 14.534 36.4611 14.5913 36.4611 14.8206C36.2032 14.7919 35.9453 14.7919 35.7447 14.8779Z" fill="#A339C0" fill-opacity="0.8"/>
<path d="M16.455 14.8216C16.4837 14.707 16.4837 14.5924 16.4837 14.4492C16.2545 14.4492 16.054 14.4492 15.8535 14.4779C15.9108 14.8502 16.054 15.0794 16.2545 15.2226C16.3404 15.1367 16.4264 15.0221 16.455 14.8216Z" fill="#A339C0" fill-opacity="0.8"/>
<path d="M19.374 13.5823C19.3453 13.5823 19.3453 13.5823 19.3166 13.5823C19.3166 13.5823 19.3166 13.5823 19.288 13.5823H19.2593H19.2307C19.2307 13.5823 19.2307 13.5823 19.202 13.5823C19.202 13.5823 19.202 13.5823 19.1734 13.5823C19.1447 13.5823 19.0874 13.5823 19.0587 13.5823C19.0301 13.5823 19.0014 13.5823 18.9728 13.5823C18.9154 13.5823 18.8581 13.5823 18.8008 13.5823C18.7148 13.5823 18.6002 13.5823 18.5142 13.5823C18.027 13.5537 17.5399 13.4677 17.0527 13.3531C16.5941 13.2384 16.1643 13.1525 15.7057 13.1238C15.6771 13.1238 15.6198 13.1238 15.5911 13.1238H15.5624H15.5338C15.4192 13.1238 15.3332 13.1238 15.2472 13.1525C15.0466 13.1811 14.8747 13.2098 14.7314 13.2671C14.6454 13.2957 14.5881 13.3244 14.5308 13.3531C14.3302 13.4677 14.2442 13.5537 14.1582 13.611C14.2442 13.9262 14.3588 14.2128 14.5021 14.4994C14.7887 14.3274 15.5338 13.9835 16.0496 13.9549H16.1643C16.5082 13.9262 16.7661 13.8976 18.199 14.1268C19.4599 14.2988 20.377 13.9262 20.6349 13.7829C20.8069 13.6683 20.9502 13.5537 21.0934 13.439C21.1508 13.3817 21.2081 13.3244 21.2654 13.2671C21.4087 13.1238 21.5233 12.9805 21.5806 12.8945C21.0934 13.1238 20.4057 13.439 19.374 13.5823Z" fill="#A339C0" fill-opacity="0.8"/>
<path d="M11.4053 17.8535C11.5486 18.0541 11.9785 18.6559 12.8955 18.1114C13.8126 17.5669 14.2711 17.2803 14.2711 17.2803C14.2711 17.2803 14.1278 17.5669 14.2425 17.8822C14.2425 17.9108 14.2711 17.9108 14.2711 17.8822C14.3571 17.6816 15.1595 17.0511 16.1625 16.9651C16.2199 16.9651 16.2485 16.9364 16.2772 16.9364C16.2199 16.9078 16.1625 16.8505 16.1052 16.8218C15.9333 16.7072 15.79 16.6212 15.6467 16.5352C15.5607 16.4779 15.4461 16.4206 15.3601 16.3633C14.9303 16.4493 14.0992 16.7358 13.0388 17.4236C11.9498 18.1401 11.434 17.8535 11.4053 17.8535C11.4053 17.8248 11.3767 17.8248 11.4053 17.8535Z" fill="#A339C0" fill-opacity="0.8"/>
<path d="M15.2451 14.6759C15.1018 14.7332 14.7865 14.9051 14.7006 14.9624C14.6719 14.9911 14.6146 14.9911 14.5859 15.0198C14.6719 15.163 14.7865 15.3063 14.8725 15.421C15.3024 15.5356 15.7896 15.5929 16.1621 15.5929C16.3914 15.5929 16.6207 15.5643 16.8786 15.5356C16.9072 15.5356 16.9646 15.5356 16.9932 15.5069C17.0219 15.5069 17.0792 15.4783 17.1078 15.4783C17.7097 15.335 17.9962 14.9911 18.1682 14.6472C18.1109 14.6472 18.0249 14.6472 17.9389 14.6185C17.5664 14.5612 17.2798 14.5326 17.0505 14.5039C17.0219 14.5899 16.9932 14.6759 16.9646 14.7618C16.9072 14.8478 16.8499 14.9338 16.7926 15.0198C16.7639 15.0484 16.7353 15.0771 16.7066 15.0771C16.5347 15.1917 16.3341 15.249 16.1048 15.249C15.8756 15.249 15.6463 15.1917 15.503 15.0484C15.417 14.9911 15.3024 14.8191 15.2451 14.6759Z" fill="#A339C0" fill-opacity="0.8"/>
<path d="M11.7255 14.9925C11.1236 15.8236 11.9547 16.7693 12.012 16.8266C12.0407 16.8839 12.0693 16.8553 12.0693 16.798C12.0693 16.7407 12.4992 15.451 15.0784 16.1388C14.6772 15.7949 14.1041 15.1071 13.7888 14.2188C13.4163 14.2188 12.2413 14.3047 11.7255 14.9925ZM13.7888 14.8779C13.5882 14.7919 13.3016 14.7919 13.0724 14.8206C13.0724 14.5913 13.4163 14.534 13.6169 14.534C13.6169 14.534 13.7029 14.7633 13.7888 14.8779Z" fill="#A339C0" fill-opacity="0.8"/>
<path d="M21.8139 14.9924C21.728 14.9924 21.6133 14.9924 21.556 14.9924C20.9828 14.9637 20.5243 14.8491 20.0658 14.5625C19.8938 14.6198 19.5786 14.6771 19.2347 14.7058C18.9481 14.7344 18.6902 14.7344 18.5183 14.7344C18.4323 14.9637 18.2603 15.3363 17.8878 15.6802C17.4866 15.9954 16.9421 16.0814 16.5122 16.0814C16.3116 16.0814 16.1396 16.0527 15.9963 16.0527H15.939C15.8244 16.0527 15.5665 15.9954 15.3945 15.9667C15.5378 16.0814 15.6811 16.1674 15.8244 16.2247C15.9677 16.3106 16.111 16.3966 16.3116 16.5399C17.2 17.1704 17.9164 18.0874 18.0024 18.7179C18.0597 18.9472 18.0311 19.1764 18.0311 19.1764C18.1457 19.0905 18.2603 18.8899 18.3177 18.6606C18.4323 18.9472 18.8048 19.8642 18.6902 20.7813C18.5469 21.8703 18.2317 22.3861 17.9738 22.6727C17.8591 22.7874 17.7731 22.902 17.6872 22.9593C18.289 22.6727 19.2347 22.0422 19.7506 20.8959C20.0371 20.2368 20.1231 18.9185 20.1231 18.9185L20.1518 18.546L20.4957 18.7179C20.5243 18.7179 21.0115 18.9758 21.556 19.7209C21.7566 19.9789 21.8999 20.2941 22.0145 20.552C22.0719 20.3514 22.1578 20.0648 22.1865 19.7783C22.2438 19.1191 22.0719 18.4027 22.0719 18.4027L21.9572 17.9155L22.4158 18.1161C22.4444 18.1161 22.8743 18.3167 23.3901 18.6893C23.7054 18.9185 23.9633 19.1478 24.1639 19.3484C23.9633 18.8039 23.6767 18.2307 23.3328 17.7149C22.1292 15.9094 21.3841 15.4796 21.3841 15.4796L21.1835 15.3649H21.2121C21.4414 15.2503 21.642 15.1357 21.8139 14.9924Z" fill="#A339C0" fill-opacity="0.8"/>
</g>
<defs>
<filter id="filter0_i_2_33510" x="0.259766" y="0.632812" width="49.4736" height="55.7899" filterUnits="userSpaceOnUse" color-interpolation-filters="sRGB">
<feFlood flood-opacity="0" result="BackgroundImageFix"/>
<feBlend mode="normal" in="SourceGraphic" in2="BackgroundImageFix" result="shape"/>
<feColorMatrix in="SourceAlpha" type="matrix" values="0 0 0 0 0 0 0 0 0 0 0 0 0 0 0 0 0 0 127 0" result="hardAlpha"/>
<feOffset dy="1.05263"/>
<feGaussianBlur stdDeviation="0.526316"/>
<feComposite in2="hardAlpha" operator="arithmetic" k2="-1" k3="1"/>
<feColorMatrix type="matrix" values="0 0 0 0 0.137255 0 0 0 0 0.0313726 0 0 0 0 0.168627 0 0 0 0.3 0"/>
<feBlend mode="normal" in2="shape" result="effect1_innerShadow_2_33510"/>
</filter>
<clipPath id="clip0_2_33510">
<rect width="49.4737" height="54.7369" fill="white" transform="translate(0.259766 0.632812)"/>
</clipPath>
</defs>
</svg>
