<svg width="52" height="55" viewBox="0 0 52 55" fill="none" xmlns="http://www.w3.org/2000/svg">
<g clip-path="url(#clip0_2_33455)" filter="url(#filter0_i_2_33455)">
<path fill-rule="evenodd" clip-rule="evenodd" d="M25.365 0.792917C25.7869 0.791684 26.2088 0.791684 26.6306 0.792917C26.6306 1.21356 26.6306 1.6342 26.6294 2.05484C26.4654 2.04867 26.3001 2.04004 26.136 2.0314C26.4407 2.17696 26.7256 2.48042 26.6084 2.84555C26.4999 3.36488 25.7252 3.48453 25.4637 3.02318C25.1997 2.64078 25.481 2.1819 25.8621 2.0277C25.6968 2.03881 25.5316 2.04867 25.3663 2.05608C25.365 1.63543 25.3638 1.21479 25.365 0.792917ZM22.6999 4.12629C23.2723 3.63533 24.0433 3.49347 24.7673 3.39479C24.9071 3.81837 25.0464 4.24194 25.1857 4.66542L25.1871 4.66956C25.4506 5.47056 25.7139 6.27119 25.9799 7.07078C26.2621 6.32532 26.5073 5.5658 26.7524 4.80638C26.9048 4.33426 27.0572 3.86219 27.2184 3.39355C27.9425 3.49594 28.7147 3.63533 29.2871 4.12875C29.6979 4.47538 29.8915 5.07859 29.7102 5.59175C29.4786 6.25456 29.0666 6.82764 28.6601 7.39298L28.6601 7.393C28.6119 7.46 28.5638 7.52689 28.5161 7.5938C28.518 7.67364 28.5154 7.75555 28.5128 7.83804C28.5034 8.13156 28.4938 8.43243 28.6863 8.67316C29.2871 9.71551 30.4849 10.2866 31.6678 10.2718L31.616 10.1675C31.2886 9.51006 30.9272 8.78404 31.1029 8.03912C31.4019 7.36715 32.2119 7.24064 32.8671 7.13831L32.9359 7.12752C33.047 7.51554 33.1422 7.90823 33.2374 8.30092C33.3441 8.74091 33.4508 9.18091 33.5798 9.61436C33.6514 9.33338 33.7198 9.05135 33.7882 8.76921C33.9169 8.23882 34.0456 7.70803 34.1954 7.18303C34.7431 7.14232 35.3907 7.32489 35.82 7.70976C36.1987 8.05145 36.1136 8.61025 35.9927 9.05063C35.9403 9.28756 35.8355 9.50944 35.7312 9.73022C35.5553 10.1026 35.3809 10.4718 35.4622 10.9047C35.0132 10.9038 34.5643 10.9046 34.1154 10.9053H34.1154H34.1153H34.1152H34.1152H34.1151H34.115H34.115C33.2582 10.9068 32.4016 10.9082 31.5445 10.8985C30.3973 10.8763 29.181 10.6876 28.2435 9.97579C27.7205 9.59093 27.3689 9.00745 27.2394 8.37341C26.4084 8.37094 25.5774 8.37217 24.7451 8.37341L24.7439 8.37341C24.5922 9.16288 24.0642 9.84257 23.366 10.2262C22.2225 10.8837 20.8607 10.917 19.5778 10.9059C19.1146 10.9048 18.6517 10.9049 18.1889 10.9051H18.1888H18.1888H18.1887H18.1887H18.1886H18.1886H18.1885C17.6334 10.9053 17.0785 10.9054 16.5235 10.9034C16.603 10.4723 16.4292 10.1048 16.2538 9.73367C16.1486 9.51128 16.0429 9.2876 15.9906 9.04816C15.8833 8.63245 15.7846 8.11806 16.1078 7.76897C16.5014 7.32965 17.1131 7.23301 17.6692 7.14516L17.7571 7.13122C17.8274 6.87217 17.9914 6.66494 18.2196 6.52431C18.1645 6.52493 18.0824 6.52554 18.0004 6.52615C17.9174 6.52677 17.8345 6.52739 17.7793 6.52801L17.783 5.27226H19.0412L19.0412 5.27594C19.0424 5.69411 19.0437 6.11107 19.0437 6.52925C18.9888 6.52863 18.9065 6.5274 18.8242 6.52616C18.7418 6.52493 18.6594 6.5237 18.6045 6.52308C18.8327 6.66494 18.9943 6.87711 19.0733 7.13369L19.0905 7.13627C19.7467 7.23452 20.5796 7.35925 20.8804 8.04035C21.0549 8.78014 20.6985 9.50018 20.3749 10.1539L20.3167 10.2718C21.4997 10.2866 22.6974 9.71428 23.2982 8.67069C23.4914 8.42922 23.4811 8.12648 23.4711 7.83177C23.4683 7.75011 23.4656 7.66906 23.4672 7.5901L23.3551 7.43526C22.9358 6.85706 22.511 6.27118 22.2743 5.59175C22.093 5.07735 22.2854 4.47168 22.6999 4.12629ZM18.1898 8.73993L18.1898 8.73998C18.2572 9.01735 18.3247 9.29471 18.3997 9.56995C18.5307 9.21119 18.6175 8.83999 18.7044 8.46844C18.7747 8.168 18.8451 7.86733 18.9388 7.57283C18.6366 7.86272 18.1826 7.85532 17.8817 7.5679C17.9988 7.95463 18.0943 8.34729 18.1898 8.73993ZM40.8296 4.67419C40.5755 4.38924 40.166 4.06111 39.77 4.27452C39.4687 4.4476 39.1745 4.63294 38.8804 4.81833C38.5917 5.00024 38.3029 5.18219 38.0072 5.35264C37.6347 5.54384 37.4583 6.00273 37.615 6.395C37.7089 6.6703 37.8372 6.94 37.9659 7.21046L37.9659 7.21054C38.2599 7.82836 38.5557 8.4502 38.4476 9.15199C38.2971 9.98834 37.5422 10.5163 36.8428 10.8901C37.5262 10.8666 38.2774 10.8346 38.8374 10.3892C39.316 10.0031 39.4505 9.35429 39.4727 8.76959C39.4978 8.40002 39.3946 8.05057 39.2914 7.70093C39.1916 7.36317 39.0918 7.02524 39.1076 6.66885C39.1076 6.26424 39.2815 5.88924 39.4665 5.53891C40.1213 5.87164 40.7531 6.24586 41.3849 6.62012C41.4839 6.67877 41.5829 6.73741 41.682 6.7959C42.2692 7.09812 42.2519 7.92954 41.9349 8.42542C41.813 8.64184 41.6485 8.84639 41.4832 9.05205L41.4832 9.05208C41.1048 9.52281 40.7217 9.99934 40.8333 10.6372C40.9416 11.1205 41.263 11.4792 41.5851 11.8388C41.8903 12.1795 42.1962 12.5209 42.3222 12.9698C42.2766 13.1795 42.2334 13.3892 42.1927 13.6002L42.2288 13.5738C42.68 13.2434 43.2261 12.8435 43.2165 12.2272C43.2339 11.9755 43.1098 11.7725 42.9856 11.5693C42.8621 11.3673 42.7386 11.1651 42.754 10.9147C43.1423 10.89 43.5311 10.8932 43.92 10.8964C44.229 10.899 44.5382 10.9015 44.8473 10.8901C44.7523 10.5336 44.5216 10.2276 44.1824 10.071C44.1156 10.0231 44.0353 9.98068 43.9532 9.9374C43.7185 9.81355 43.4696 9.68229 43.4842 9.39253C43.4808 9.14277 43.6588 8.98018 43.8344 8.81975C43.9138 8.74723 43.9927 8.67515 44.0541 8.59565C44.497 8.15528 44.418 7.3806 43.9752 6.96983C43.5141 6.53456 42.8644 6.43517 42.2597 6.34264L42.1668 6.32838C41.8685 6.00001 41.5967 5.64996 41.3249 5.29991L41.3248 5.29988L41.3248 5.29982L41.3247 5.29974C41.1616 5.08966 40.9985 4.87958 40.8296 4.67419ZM32.9454 4.58105H32.9454C33.3648 4.58105 33.7854 4.58105 34.206 4.58476L34.2063 4.80606C34.2071 5.15631 34.2078 5.50601 34.1925 5.85655C34.079 5.84545 33.852 5.82571 33.7385 5.81584C33.9852 5.9762 34.2566 6.20688 34.2011 6.5387C34.1715 7.07777 33.403 7.30104 33.0847 6.8693C32.7764 6.51527 33.0083 5.99347 33.4055 5.83188C33.2513 5.83681 33.0983 5.83928 32.9454 5.84175C32.9429 5.4211 32.9429 5.0017 32.9454 4.58105ZM13.1258 5.35336C12.7495 5.11405 12.3351 5.42861 12.0908 5.70986C11.9124 5.92244 11.7422 6.14198 11.5719 6.36159L11.5719 6.36162L11.5719 6.36165L11.5718 6.36168L11.5718 6.36171L11.5718 6.36172C11.3301 6.67346 11.0883 6.98535 10.8227 7.27771L10.7391 7.29028C10.2097 7.36971 9.65258 7.45329 9.21788 7.7884C8.74913 8.14613 8.58383 8.91586 9.002 9.37475C9.06326 9.45355 9.14203 9.52791 9.22172 9.60315C9.43892 9.80821 9.66302 10.0198 9.55834 10.3456C9.41755 10.5471 9.20046 10.658 8.98339 10.7689C8.85242 10.8358 8.72146 10.9027 8.60727 10.9895C8.5012 11.093 8.43419 11.2259 8.36744 11.3582C8.33638 11.4198 8.30537 11.4813 8.27051 11.5396C8.73792 11.6347 9.20722 11.6154 9.67705 11.5962C9.86563 11.5884 10.0543 11.5807 10.243 11.5803C10.3012 11.8216 10.1799 12.0029 10.0577 12.1857C9.94679 12.3514 9.83509 12.5184 9.85562 12.7325C9.80011 13.3542 10.3046 13.8057 10.7845 14.103C10.7735 14.0575 10.7594 14.0116 10.7453 13.9654C10.6944 13.7992 10.6423 13.629 10.7253 13.464C10.8544 13.0593 11.1287 12.7495 11.4034 12.4391L11.4034 12.4391C11.6219 12.1923 11.8407 11.9451 11.9872 11.6494C12.1352 11.3398 12.1426 10.9673 12.0094 10.6515C11.883 10.3554 11.6808 10.1042 11.4791 9.8535C11.2319 9.5464 10.9854 9.24006 10.8795 8.85295C10.7857 8.45081 10.8585 7.92409 11.268 7.72425C11.3665 7.66585 11.4649 7.60725 11.5634 7.54864C12.1613 7.19257 12.7595 6.8363 13.3824 6.52277C13.5612 6.8768 13.7302 7.2555 13.7166 7.66257C13.7178 7.9712 13.6308 8.26497 13.5439 8.5586C13.4518 8.8694 13.3598 9.18004 13.3725 9.50797C13.3836 10.0692 13.4897 10.6946 13.9374 11.0807C14.4395 11.5069 15.1239 11.5452 15.7553 11.5805L15.8618 11.5865C15.187 11.2214 14.4457 10.7082 14.3297 9.88914C14.2479 9.24933 14.515 8.68597 14.7815 8.12406C14.9126 7.84745 15.0436 7.57119 15.1328 7.28634C15.2685 6.91381 15.0674 6.5092 14.7269 6.33527C14.4365 6.16829 14.1528 5.98966 13.8692 5.81109C13.6228 5.6559 13.3764 5.50077 13.1258 5.35336ZM2.26499 12.6409C1.65068 11.4172 2.15274 9.79138 3.27774 9.05001C5.31063 11.6392 7.47922 14.1187 9.68358 16.5636C10.2897 17.2472 10.9338 17.8953 11.578 18.5435C12.3077 19.2778 13.0375 20.0121 13.7124 20.7984C14.2268 21.425 14.7856 22.2009 14.5771 23.0595C14.5026 23.4589 14.213 23.7281 13.9271 23.9938C13.8246 24.0892 13.7225 24.1841 13.6309 24.2844C13.2572 24.6705 13.3004 25.3107 13.6087 25.7227C14.0911 26.3975 14.9397 26.7157 15.7465 26.733C16.2088 26.7394 16.6711 26.7381 17.1335 26.7368C17.5556 26.7356 17.9777 26.7345 18.3999 26.7392C17.7029 26.078 17.3254 25.1577 17.1268 24.2338C17.192 24.2294 17.2576 24.2251 17.3235 24.2209L17.3238 24.2208H17.3239C18.2884 24.1581 19.3142 24.0914 20.1108 23.4887C20.7115 23.0114 21.0076 22.2244 20.9323 21.467C20.8719 19.7881 20.0319 18.1906 18.7909 17.078C18.5849 16.9016 18.3653 16.7289 18.1063 16.6401C17.3045 16.6931 16.6371 17.2371 16.1869 17.8687C16.1723 17.8466 16.1573 17.8241 16.1421 17.8013C15.9916 17.5766 15.8205 17.3212 15.918 17.0434C16.0287 16.6861 16.348 16.4722 16.6467 16.2721C16.6873 16.2449 16.7274 16.218 16.7666 16.191C16.0968 16.0035 15.3715 15.9234 14.6918 16.1035C14.4381 16.168 14.23 16.3231 14.023 16.4774L14.023 16.4774L14.023 16.4774L14.023 16.4774C13.9451 16.5354 13.8675 16.5933 13.7876 16.6462C13.7643 16.612 13.7405 16.5776 13.7164 16.543C13.5326 16.2784 13.3395 16.0004 13.346 15.6656C13.3201 15.2313 13.5594 14.8095 13.9319 14.5936C14.5055 14.2248 15.2 14.1335 15.8674 14.1039C15.9093 13.4563 16.4323 12.8469 17.1083 12.8518C18.8533 12.8427 20.5992 12.8452 22.3452 12.8478H22.3453H22.3454H22.3459L23.4685 12.8494C23.1823 13.381 22.8172 13.9275 22.2202 14.136C23.0232 14.955 23.8213 15.8037 24.3666 16.8226C25.5335 18.9123 25.8888 21.335 25.9949 23.6935C26.0935 21.3017 26.4661 18.842 27.6688 16.735C28.2091 15.7519 28.9874 14.9316 29.7683 14.136C29.1688 13.9299 28.8024 13.381 28.5187 12.8494L29.642 12.8478H29.6425H29.6426H29.6427C31.3897 12.8452 33.1366 12.8427 34.8826 12.8518C35.5561 12.8494 36.0754 13.4587 36.1199 14.1026C36.8896 14.1446 37.7432 14.2507 38.323 14.8107C38.83 15.3165 38.6289 16.154 38.1959 16.6401C37.4151 15.8592 36.2062 15.9098 35.2181 16.1873C35.2616 16.2179 35.3063 16.2482 35.3514 16.2788L35.3517 16.279C35.646 16.4786 35.9587 16.6908 36.0656 17.0447C36.1569 17.3069 36.0051 17.5473 35.8666 17.7665L35.8665 17.7667C35.8442 17.8021 35.8222 17.8369 35.8016 17.8711C35.3439 17.2433 34.6828 16.6919 33.8773 16.6401C33.4067 16.8215 33.0511 17.1988 32.7118 17.5588L32.6918 17.58C31.6248 18.763 30.9328 20.3617 31.0907 21.9739C31.0783 22.83 31.7629 23.5134 32.4994 23.8391C33.2531 24.1117 34.0623 24.1795 34.8567 24.2301C34.6766 25.154 34.2584 26.0262 33.6231 26.7244C34.2151 26.7411 34.8077 26.739 35.4001 26.7368H35.4002H35.4003H35.4005H35.4006H35.4007H35.4008C35.6377 26.736 35.8745 26.7351 36.1112 26.7355C36.955 26.7342 37.8752 26.4406 38.3748 25.719C38.6671 25.3329 38.7276 24.747 38.4155 24.3547C38.3077 24.2247 38.1802 24.106 38.0524 23.9871C37.7619 23.7167 37.4696 23.4448 37.4027 23.0336C37.2226 22.2811 37.6865 21.5915 38.1342 21.034C38.8194 20.2227 39.5799 19.483 40.3405 18.7433C40.874 18.2244 41.4075 17.7055 41.9151 17.1619C44.244 14.6627 46.4546 12.0525 48.5146 9.32756C48.5985 9.22517 48.6885 9.12649 48.7823 9.03027C49.8629 9.83332 50.3279 11.411 49.7247 12.6372C49.1721 13.7832 48.2975 14.733 47.4204 15.6384C45.5639 17.4974 43.4916 19.1244 41.3711 20.6701C41.5574 21.0142 41.73 21.367 41.8879 21.726C43.5471 20.9254 45.1408 19.9892 46.668 18.9591C48.1322 17.9402 49.5767 16.8263 50.6264 15.367C51.1347 15.9086 51.242 16.6894 51.2531 17.4024C51.2629 18.1351 50.8324 18.7864 50.3328 19.2873C49.4533 20.1495 48.3666 20.7614 47.2613 21.2844C45.6651 22.027 43.9924 22.6031 42.2814 23.0151L42.2928 23.1139L42.2928 23.1141C42.3348 23.4795 42.3767 23.845 42.4073 24.2116C45.4628 23.8317 48.5023 23.0718 51.2654 21.689C51.2777 22.7881 50.8226 23.8995 49.9504 24.5903C48.8069 25.5179 47.2909 25.7721 45.8649 25.9003C44.677 25.9744 43.4842 25.9657 42.2987 25.8633C42.221 26.2334 42.1297 26.5998 42.0335 26.9649C43.9541 27.8469 46.1486 28.2552 48.2383 27.8321C48.8341 27.7211 49.4188 27.557 49.9961 27.3744C49.8888 28.3539 49.399 29.3148 48.5713 29.8748C47.714 30.4608 46.6297 30.5928 45.6157 30.4978C44.006 30.3609 42.4911 29.6244 41.2687 28.5883C41.0306 28.9349 40.7753 29.2679 40.5113 29.5948C41.4315 30.8087 42.654 31.8288 44.0787 32.3938C44.7646 32.68 45.4813 32.8872 46.2041 33.0624C45.5084 33.9382 44.3612 34.3625 43.2609 34.3156C42.2173 34.3132 41.2687 33.7753 40.4743 33.145C39.7576 32.5578 39.2087 31.7893 38.8078 30.9604C38.3847 31.1837 37.943 31.3699 37.4903 31.5229C37.9936 33.4657 39.3357 35.1742 41.149 36.0537C40.4805 36.7026 39.4862 36.8679 38.5882 36.8333C37.8074 36.7988 37.1301 36.2634 36.7835 35.5825C36.1692 34.4217 36.0841 33.0698 36.0939 31.7807C35.2354 31.8991 34.3324 32.2716 33.8859 33.0587C33.5291 33.6863 33.5521 34.4066 33.5746 35.1136V35.1137V35.1138V35.1139C33.5819 35.3405 33.5891 35.5657 33.5837 35.786C33.5929 35.9454 33.5864 36.1132 33.5799 36.283V36.2831V36.2832V36.2833C33.5603 36.797 33.54 37.3288 33.9488 37.6968C34.2667 38.0536 34.7303 38.0947 35.1777 38.1345C35.2841 38.1439 35.3896 38.1533 35.492 38.1668C36.5097 38.3457 37.3398 39.298 37.3509 40.3366C37.4768 42.1154 36.3111 43.6721 34.9973 44.7404C36.3407 45.1857 37.6828 45.6335 39.0249 46.085C39.2972 46.1929 39.5757 46.0731 39.8341 45.962C39.88 45.9422 39.9253 45.9227 39.9698 45.9049C39.9796 45.8506 40.0018 45.7445 40.0129 45.6915C40.6505 45.6915 41.2882 45.6909 41.926 45.6903H41.9262H41.9265H41.9267H41.929C43.3324 45.6889 44.7362 45.6876 46.14 45.6927C45.9192 46.7326 45.1593 47.6417 44.1564 48.0081C43.5571 48.2486 42.8998 48.219 42.2684 48.1907L42.2679 48.1906C41.2416 48.1438 40.2263 47.9513 39.2407 47.6664C38.4893 47.4518 37.7378 47.2376 36.9864 47.0234L36.981 47.0219L36.9756 47.0203L36.9702 47.0188C35.7399 46.6681 34.5098 46.3174 33.2802 45.9653C32.7029 45.8272 32.2761 45.2659 32.3106 44.6713C32.3106 44.5868 32.311 44.5018 32.3114 44.4164C32.3157 43.4814 32.3202 42.4994 31.8172 41.68C31.3608 40.8942 30.3814 40.5204 29.5055 40.6697C28.9208 40.814 28.494 41.2864 28.1671 41.7651C27.6527 42.5545 27.3148 43.4711 27.2444 44.4135C28.8912 44.8798 30.5405 45.4694 31.9381 46.4834C32.7523 47.0804 33.5047 47.9341 33.5664 48.99C33.6318 49.6931 33.2518 50.3728 32.6795 50.7651C32.0837 49.4513 31.1449 48.3226 30.0989 47.3432C29.2699 46.5895 28.3485 45.895 27.2753 45.5336C28.4768 46.724 29.5931 48.0377 30.3555 49.5562C30.8328 50.4542 30.8698 51.6039 30.3296 52.4809C30.0483 52.9485 29.5277 53.1952 29.0047 53.2791C28.9455 51.7038 28.5828 50.1483 28.0179 48.6804C27.749 48.0093 27.4258 47.3481 26.9484 46.7992C27.1038 48.5891 27.258 50.3827 27.2481 52.1812C27.2321 53.1076 26.7831 54.0328 25.9949 54.541C25.2078 54.0352 24.7551 53.115 24.7391 52.1898C24.728 50.3876 24.881 48.5903 25.0401 46.798C24.5578 47.3494 24.2333 48.0167 23.9632 48.6927C23.4019 50.1569 23.038 51.7075 22.9825 53.2791C22.4558 53.1989 21.9365 52.946 21.6527 52.4772C21.1124 51.6002 21.1581 50.4505 21.633 49.5537C22.3941 48.0426 23.5006 46.7314 24.6984 45.5484C23.7066 45.8592 22.8579 46.4957 22.082 47.168C20.9509 48.1845 19.9381 49.3712 19.3065 50.7663C18.7712 50.3913 18.3912 49.7758 18.4171 49.1084C18.4245 48.0426 19.1597 47.1545 19.9714 46.5426C21.3814 45.4941 23.0627 44.886 24.7403 44.4184C24.6318 43.1713 24.1235 41.9069 23.1935 41.0484C22.6038 40.4883 21.686 40.5624 21.0051 40.8966C20.4032 41.1952 20.0134 41.8033 19.8456 42.4386C19.6792 43.0011 19.6785 43.5848 19.6779 44.1664V44.1666C19.6777 44.3782 19.6774 44.5896 19.6692 44.7996C19.6556 45.3177 19.2782 45.7889 18.7872 45.9394C17.7443 46.2817 16.6993 46.6188 15.6542 46.9558L15.654 46.9558L15.6538 46.9559L15.6535 46.956L15.6533 46.9561C14.7518 47.2468 13.8502 47.5375 12.95 47.8317C12.994 47.9478 13.0568 48.0631 13.1201 48.1794C13.2701 48.4547 13.4232 48.7358 13.3374 49.048C13.2091 49.4933 12.5602 49.6216 12.2703 49.2614C12.1229 49.0482 12.0147 48.8136 11.9064 48.5788L11.9064 48.5788C11.8462 48.4482 11.786 48.3176 11.7189 48.1906C10.6926 48.3547 9.67248 47.5369 9.57996 46.5093C9.43687 45.9221 9.77486 45.3695 10.1462 44.9464L9.32396 43.2447C7.76182 40.0113 6.19982 36.7781 4.62355 33.5521C4.50537 33.9751 4.09746 34.1222 3.72297 34.2572C3.6792 34.273 3.63588 34.2887 3.59353 34.3045C3.52872 34.1825 3.47351 34.0527 3.41821 33.9226C3.31247 33.6739 3.2064 33.4245 3.03226 33.2276C2.38958 33.0426 1.70866 32.8156 1.27075 32.279C0.82667 31.698 0.734153 30.9382 0.730453 30.2289C1.28925 30.4139 1.84558 30.6039 2.39698 30.8111C1.97387 30.0303 2.15027 29.0965 2.4969 28.3243C2.51524 28.2961 2.53028 28.2575 2.54593 28.2173C2.58925 28.1061 2.63731 27.9827 2.77322 28.0344C3.67124 28.2552 4.62355 28.7128 5.01582 29.6072L5.01591 29.6069C5.21325 29.0729 5.41058 28.5388 5.61285 28.0073C6.16055 28.3662 6.5997 28.8892 6.83901 29.4999C7.08325 30.2276 6.82914 31.0036 6.51212 31.6672C6.68851 32.0274 6.86491 32.3876 7.04624 32.7453C6.97407 32.7778 6.90137 32.8142 6.82798 32.851C6.49748 33.0165 6.15309 33.189 5.78062 33.0426C6.61045 34.7327 7.42888 36.428 8.24724 38.1232L8.24741 38.1236L8.24746 38.1237C9.25377 40.2082 10.26 42.2925 11.2872 44.3666C12.1334 44.4061 12.9587 44.8699 13.2633 45.6902C13.3407 45.6902 13.4186 45.692 13.4967 45.6938C13.819 45.7012 14.1455 45.7087 14.4513 45.5915C15.2962 45.3029 16.1425 45.0216 16.9899 44.7416C15.9846 43.9115 15.089 42.858 14.751 41.5739C14.3501 40.3995 14.7831 38.8576 15.9932 38.3494C16.267 38.1958 16.5826 38.159 16.8957 38.1224C17.3149 38.0734 17.7297 38.0249 18.0347 37.698C18.4584 37.3149 18.4356 36.7506 18.414 36.2146C18.408 36.0638 18.402 35.9153 18.406 35.7737C18.3832 35.4962 18.3913 35.2109 18.3995 34.9248V34.9247V34.9247V34.9247C18.4178 34.2823 18.4362 33.6361 18.105 33.0661C17.661 32.2741 16.7543 31.9003 15.8933 31.7795C15.9007 33.1006 15.8131 34.4908 15.1544 35.6676C14.8041 36.3054 14.1515 36.7926 13.4114 36.8321C12.5035 36.8777 11.5228 36.6915 10.8283 36.0648C12.8415 35.0669 14.3119 33.0698 14.6277 30.842C14.2859 30.7588 13.9449 30.6731 13.6047 30.5877L13.6042 30.5876L13.3694 30.5286C12.7268 32.1742 11.4143 33.5915 9.71812 34.159C9.09147 34.3625 8.41919 34.3366 7.77527 34.2367L7.73501 34.1509C7.69298 34.0615 7.65112 33.9724 7.60998 33.8827C8.20702 33.5792 8.43522 32.865 8.22922 32.2445C9.52075 31.6746 10.6272 30.7161 11.4722 29.5948C11.2638 29.2223 11.0541 28.851 10.8394 28.4834C10.0623 29.1606 9.17165 29.7034 8.20825 30.0722C8.20825 29.2272 7.80611 28.4563 7.28679 27.8136C8.35628 27.6076 9.4011 27.2647 10.3608 26.7478C10.2572 26.4394 10.1597 26.1286 10.0721 25.8152C8.6807 25.9744 7.27198 25.9867 5.8756 25.8781C4.47429 25.7326 2.97922 25.4415 1.89863 24.4682C1.10915 23.7774 0.713183 22.7239 0.721818 21.6878C3.48128 23.0743 6.51952 23.828 9.57009 24.2104C9.59991 24.1419 9.62997 24.0735 9.66003 24.0051L9.6602 24.0048C9.79302 23.7027 9.92576 23.4008 10.0364 23.0891C8.53761 22.7634 7.07585 22.2786 5.6585 21.6964C4.27692 21.1105 2.89904 20.4332 1.78391 19.4119C1.19304 18.8654 0.678644 18.1203 0.735387 17.279C0.77116 16.6117 0.858742 15.8506 1.3793 15.3744C1.93563 16.1985 2.6659 16.8868 3.42083 17.5282C5.52897 19.2626 7.89986 20.6614 10.3559 21.8432C10.578 21.6262 10.7976 21.4075 11.0174 21.1885L11.149 21.0574C8.72511 19.3082 6.34065 17.4752 4.25841 15.3202C3.49978 14.506 2.74114 13.6586 2.26499 12.6409ZM42.4148 40.6329H42.4143C42.4131 41.0513 42.4131 41.4709 42.4131 41.8905C42.8339 41.893 43.2548 41.893 43.6757 41.8905C43.6794 41.4697 43.6781 41.0488 43.6683 40.6279C43.25 40.6353 42.8331 40.6341 42.4148 40.6329ZM39.9463 44.431C40.1868 43.2024 41.1946 42.2217 42.4122 41.9639C42.4146 42.7965 42.4134 43.6292 42.4122 44.4618C42.2542 44.459 42.0963 44.4559 41.9383 44.4528H41.9382C41.2746 44.4399 40.6109 44.427 39.9463 44.431ZM46.1497 44.431C45.8956 43.2159 44.8989 42.218 43.6839 41.9639C43.6824 42.4334 43.6826 42.903 43.6828 43.3728C43.683 43.725 43.6831 44.0772 43.6826 44.4297C44.5042 44.4371 45.3269 44.4347 46.1497 44.431Z" fill="url(#paint0_linear_2_33455)"/>
</g>
<defs>
<filter id="filter0_i_2_33455" x="0.717773" y="0.795898" width="50.5439" height="54.8007" filterUnits="userSpaceOnUse" color-interpolation-filters="sRGB">
<feFlood flood-opacity="0" result="BackgroundImageFix"/>
<feBlend mode="normal" in="SourceGraphic" in2="BackgroundImageFix" result="shape"/>
<feColorMatrix in="SourceAlpha" type="matrix" values="0 0 0 0 0 0 0 0 0 0 0 0 0 0 0 0 0 0 127 0" result="hardAlpha"/>
<feOffset dy="1.05263"/>
<feGaussianBlur stdDeviation="0.526316"/>
<feComposite in2="hardAlpha" operator="arithmetic" k2="-1" k3="1"/>
<feColorMatrix type="matrix" values="0 0 0 0 0.137255 0 0 0 0 0.0313726 0 0 0 0 0.168627 0 0 0 0.3 0"/>
<feBlend mode="normal" in2="shape" result="effect1_innerShadow_2_33455"/>
</filter>
<linearGradient id="paint0_linear_2_33455" x1="0.72168" y1="0.791992" x2="40.4897" y2="61.5896" gradientUnits="userSpaceOnUse">
<stop stop-color="#FF7301"/>
<stop offset="0.68648" stop-color="#FF9E00"/>
<stop offset="1" stop-color="#FFE4C2"/>
</linearGradient>
<clipPath id="clip0_2_33455">
<rect width="50.544" height="53.7484" fill="white" transform="translate(0.717773 0.795898)"/>
</clipPath>
</defs>
</svg>
