<svg width="61" height="21" viewBox="0 0 61 21" fill="none" xmlns="http://www.w3.org/2000/svg">
<g clip-path="url(#clip0_2_33613)">
<path d="M14.4682 14.8673C14.4682 17.622 12.1888 19.8479 9.03632 19.8479H0V1.30078H8.69208C11.6065 1.30078 13.7518 3.367 13.7518 5.88368C13.7518 7.71187 12.5865 9.35477 10.9436 10.1495C12.9571 10.8914 14.4682 12.6941 14.4682 14.8673ZM5.72416 5.59293V8.53371H6.94296C7.76402 8.53371 8.47886 7.89873 8.47886 7.04976C8.47886 6.22869 7.76402 5.59293 6.94296 5.59293H5.72416ZM7.12904 15.5558C8.02918 15.5558 8.74402 14.8673 8.74402 13.9927C8.74402 13.1182 8.02918 12.4553 7.12904 12.4553H5.72416V15.5558H7.12904Z" fill="#102D69"/>
<path d="M40.9371 19.8479H16.123V1.30078H21.8472V14.7068H25.6687V1.30078H31.3914V14.7068H35.2144V1.30078H40.9371V19.8479Z" fill="#102D69"/>
<path d="M42.4307 5.00842C44.1798 2.51888 47.0671 0.902344 50.3257 0.902344C55.6785 0.902344 59.9978 5.22008 59.9978 10.5729C59.9978 15.9257 55.6785 20.2449 50.3257 20.2449C47.0671 20.2449 44.1519 18.6028 42.4043 16.1117L47.0151 12.8787C47.6245 13.9649 48.7627 14.6813 50.3257 14.6813C52.102 14.6813 53.2936 13.8067 53.8495 12.4553H48.8433V8.10891H53.5332C52.8959 7.10178 51.8097 6.46679 50.3257 6.46679C48.7627 6.46679 47.6245 7.18163 47.0151 8.26785L42.4307 5.00842Z" fill="#102D69"/>
</g>
<defs>
<clipPath id="clip0_2_33613">
<rect width="60.177" height="19.3426" fill="white" transform="translate(0 0.902344)"/>
</clipPath>
</defs>
</svg>
